G04*
G04 #@! TF.GenerationSoftware,Altium Limited,Altium Designer,24.10.1 (45)*
G04*
G04 Layer_Physical_Order=1*
G04 Layer_Color=255*
%FSLAX43Y43*%
%MOMM*%
G71*
G04*
G04 #@! TF.SameCoordinates,DA216BA7-6C9C-4F93-A9C1-4DB8622052F4*
G04*
G04*
G04 #@! TF.FilePolarity,Positive*
G04*
G01*
G75*
%ADD10C,0.300*%
%ADD17C,0.500*%
%ADD19R,1.200X1.400*%
%ADD20R,1.400X1.200*%
%ADD21R,1.475X0.450*%
%ADD22R,2.000X2.000*%
%ADD23R,2.200X1.550*%
%ADD24R,1.270X0.914*%
%ADD25R,0.914X0.914*%
%ADD26R,0.914X1.270*%
%ADD27R,0.914X0.914*%
%ADD28R,2.600X1.100*%
G04:AMPARAMS|DCode=29|XSize=2mm|YSize=3.4mm|CornerRadius=0mm|HoleSize=0mm|Usage=FLASHONLY|Rotation=180.000|XOffset=0mm|YOffset=0mm|HoleType=Round|Shape=Octagon|*
%AMOCTAGOND29*
4,1,8,0.500,-1.700,-0.500,-1.700,-1.000,-1.200,-1.000,1.200,-0.500,1.700,0.500,1.700,1.000,1.200,1.000,-1.200,0.500,-1.700,0.0*
%
%ADD29OCTAGOND29*%

%ADD30R,0.600X1.600*%
%ADD31R,0.700X2.000*%
%ADD59C,1.000*%
%ADD60C,0.762*%
%ADD61C,1.500*%
%ADD62R,2.000X1.600*%
G04:AMPARAMS|DCode=63|XSize=2mm|YSize=1.6mm|CornerRadius=0.4mm|HoleSize=0mm|Usage=FLASHONLY|Rotation=0.000|XOffset=0mm|YOffset=0mm|HoleType=Round|Shape=RoundedRectangle|*
%AMROUNDEDRECTD63*
21,1,2.000,0.800,0,0,0.0*
21,1,1.200,1.600,0,0,0.0*
1,1,0.800,0.600,-0.400*
1,1,0.800,-0.600,-0.400*
1,1,0.800,-0.600,0.400*
1,1,0.800,0.600,0.400*
%
%ADD63ROUNDEDRECTD63*%
%ADD64C,1.500*%
%ADD65R,1.500X1.500*%
%ADD66C,1.300*%
%ADD67C,4.800*%
%ADD68R,2.250X2.250*%
%ADD69C,2.250*%
%ADD70C,2.200*%
G04:AMPARAMS|DCode=71|XSize=2.2mm|YSize=2.2mm|CornerRadius=0.55mm|HoleSize=0mm|Usage=FLASHONLY|Rotation=90.000|XOffset=0mm|YOffset=0mm|HoleType=Round|Shape=RoundedRectangle|*
%AMROUNDEDRECTD71*
21,1,2.200,1.100,0,0,90.0*
21,1,1.100,2.200,0,0,90.0*
1,1,1.100,0.550,0.550*
1,1,1.100,0.550,-0.550*
1,1,1.100,-0.550,-0.550*
1,1,1.100,-0.550,0.550*
%
%ADD71ROUNDEDRECTD71*%
%ADD72R,2.200X2.200*%
%ADD73C,2.000*%
G04:AMPARAMS|DCode=74|XSize=2mm|YSize=2mm|CornerRadius=0.5mm|HoleSize=0mm|Usage=FLASHONLY|Rotation=180.000|XOffset=0mm|YOffset=0mm|HoleType=Round|Shape=RoundedRectangle|*
%AMROUNDEDRECTD74*
21,1,2.000,1.000,0,0,180.0*
21,1,1.000,2.000,0,0,180.0*
1,1,1.000,-0.500,0.500*
1,1,1.000,0.500,0.500*
1,1,1.000,0.500,-0.500*
1,1,1.000,-0.500,-0.500*
%
%ADD74ROUNDEDRECTD74*%
%ADD75C,0.600*%
G36*
X89941Y113840D02*
X89919Y113786D01*
Y113588D01*
X89729Y113382D01*
X86928D01*
X86792Y113355D01*
X86676Y113277D01*
X83196Y109797D01*
X82896Y109857D01*
X82893Y109865D01*
X82752Y110005D01*
X82568Y110082D01*
X82369D01*
X82186Y110005D01*
X82045Y109865D01*
X81969Y109681D01*
Y109586D01*
X79819Y107437D01*
X79719Y107450D01*
X79545Y107521D01*
X79489Y107655D01*
X79348Y107796D01*
X79165Y107872D01*
X78966D01*
X78782Y107796D01*
X78715Y107729D01*
X78202D01*
X78065Y107701D01*
X77949Y107624D01*
X77128Y106803D01*
X76847Y106817D01*
X76707Y106957D01*
X76523Y107034D01*
X76324D01*
X76140Y106957D01*
X76073Y106890D01*
X73452D01*
X73315Y106863D01*
X73199Y106786D01*
X72651Y106238D01*
X72417Y106335D01*
Y106461D01*
X71590D01*
Y105734D01*
X71815D01*
X71913Y105499D01*
X68914Y102501D01*
X68837Y102385D01*
X68836Y102379D01*
X67916D01*
X67808Y102588D01*
Y107644D01*
X68336D01*
X68400Y107416D01*
X68400Y107331D01*
Y106689D01*
X69354D01*
Y106562D01*
X69481D01*
Y105708D01*
X70265D01*
X70308Y105708D01*
X70552Y105734D01*
X71336D01*
Y106588D01*
X71463D01*
Y106715D01*
X72417D01*
Y107442D01*
X72417Y107442D01*
X72451Y107682D01*
X76398D01*
X76581Y107706D01*
X76751Y107776D01*
X76897Y107889D01*
X79211Y110202D01*
X79361Y110144D01*
X79383Y110127D01*
X79873D01*
Y110617D01*
X79856Y110639D01*
X79798Y110789D01*
X82831Y113822D01*
X86752Y114030D01*
X88566Y114088D01*
Y114088D01*
X88571Y114094D01*
X89787D01*
X89941Y113840D01*
D02*
G37*
G36*
X101519Y112643D02*
X101722Y112440D01*
X101657Y112375D01*
X101722Y112310D01*
X101519Y112107D01*
Y111766D01*
X100503D01*
X99639Y112172D01*
X98468D01*
X98894Y112375D01*
X98468Y112578D01*
X99639D01*
X100528Y112884D01*
X101519D01*
Y112643D01*
D02*
G37*
G36*
X105261Y115429D02*
X109897Y115183D01*
X114528Y114838D01*
X119150Y114396D01*
X120954Y114184D01*
X120939Y113930D01*
X116227D01*
Y114222D01*
X113227D01*
Y112722D01*
X116227D01*
Y113013D01*
X124007D01*
X127857Y109163D01*
Y107429D01*
X127116D01*
Y105678D01*
X114641Y93203D01*
X104350D01*
Y93244D01*
X104326Y93427D01*
X104256Y93597D01*
X104144Y93743D01*
X103997Y93856D01*
X103827Y93926D01*
X103644Y93950D01*
X102644D01*
X102462Y93926D01*
X102291Y93856D01*
X102145Y93743D01*
X102033Y93597D01*
X101962Y93427D01*
X101938Y93244D01*
Y92244D01*
X101962Y92061D01*
X102033Y91891D01*
X102145Y91745D01*
X102291Y91633D01*
X102462Y91562D01*
X102644Y91538D01*
X102686D01*
Y90950D01*
X102644D01*
X102462Y90926D01*
X102291Y90856D01*
X102145Y90743D01*
X102033Y90597D01*
X101962Y90427D01*
X101938Y90244D01*
Y89244D01*
X101962Y89061D01*
X102033Y88891D01*
X102123Y88773D01*
X101932Y88605D01*
X101444Y89093D01*
Y99391D01*
X101485Y99491D01*
Y99689D01*
X101409Y99873D01*
X101269Y100014D01*
X101085Y100090D01*
X100886D01*
X100702Y100014D01*
X100562Y99873D01*
X100485Y99689D01*
Y99686D01*
X100231Y99580D01*
X99265Y100546D01*
X99157Y100619D01*
X99030Y100644D01*
X97114D01*
Y101378D01*
X94606D01*
Y100644D01*
X82114D01*
Y101378D01*
X79606D01*
Y100451D01*
X79644D01*
X79875Y100311D01*
Y80422D01*
X79900Y80295D01*
X79972Y80187D01*
X84752Y75408D01*
Y65344D01*
X60143Y45927D01*
X59915Y46038D01*
Y46844D01*
X59888Y46980D01*
X59810Y47096D01*
X53816Y53090D01*
X53816Y111519D01*
X54440Y111647D01*
X59008Y112480D01*
X63592Y113216D01*
X64751Y113377D01*
X64801Y113338D01*
X64822Y113013D01*
X64348Y112539D01*
Y111339D01*
X65475D01*
Y113166D01*
X65076D01*
X65059Y113420D01*
X68191Y113855D01*
X72803Y114396D01*
X77425Y114838D01*
X81818Y115165D01*
X81931Y114919D01*
X76106Y109094D01*
X72363D01*
Y109188D01*
X70563D01*
Y109056D01*
X70254D01*
Y109162D01*
X68454D01*
Y109056D01*
X67602D01*
Y109312D01*
X66642D01*
X66491Y109520D01*
X66856Y109885D01*
Y111085D01*
X65602D01*
X64348D01*
Y109885D01*
X64713Y109520D01*
X64562Y109312D01*
X64364Y109312D01*
X63602D01*
Y109287D01*
X63579Y109284D01*
X61987D01*
X61794Y109364D01*
X61546Y109397D01*
X60539D01*
X60434Y109651D01*
X60470Y109686D01*
X60547Y109873D01*
X59453D01*
X59530Y109686D01*
X59566Y109651D01*
X59461Y109397D01*
X57592D01*
X57344Y109364D01*
X57113Y109268D01*
X56914Y109116D01*
X56036Y108237D01*
X55883Y108039D01*
X55788Y107808D01*
X55755Y107560D01*
Y105060D01*
X55788Y104812D01*
X55883Y104581D01*
X56036Y104383D01*
X59388Y101030D01*
X59587Y100878D01*
X59802Y100789D01*
X59819Y100733D01*
X59821Y100525D01*
X59686Y100470D01*
X59530Y100314D01*
X59453Y100127D01*
X60547D01*
X60470Y100314D01*
X60314Y100470D01*
X60252Y100495D01*
X60302Y100749D01*
X62260D01*
X62918Y100091D01*
Y98558D01*
X62676D01*
Y96158D01*
X65076D01*
Y98558D01*
X64834D01*
Y100488D01*
X64802Y100736D01*
X64706Y100967D01*
X64554Y101166D01*
X63334Y102385D01*
X63136Y102537D01*
X62905Y102633D01*
X62657Y102666D01*
X60463D01*
X57671Y105457D01*
Y107163D01*
X57989Y107480D01*
X58384D01*
X58596Y107380D01*
X58596Y107226D01*
Y106653D01*
X59550D01*
Y106526D01*
X59677D01*
Y105672D01*
X60450D01*
X60504Y105672D01*
X60704D01*
X60758Y105672D01*
X61531D01*
Y106526D01*
X61658D01*
Y106653D01*
X62612D01*
Y107368D01*
X63602D01*
Y107312D01*
X64602D01*
Y107975D01*
X64649Y108089D01*
X64682Y108337D01*
X64649Y108585D01*
X64602Y108699D01*
Y109061D01*
X64602Y109271D01*
X64810Y109423D01*
X64975Y109258D01*
X64998D01*
Y108639D01*
X65602D01*
Y108512D01*
X65729D01*
Y107258D01*
X66142D01*
X66206Y107258D01*
X66396Y107103D01*
Y96976D01*
X66420Y96793D01*
X66490Y96623D01*
X66603Y96477D01*
X67291Y95788D01*
X67232Y95489D01*
X67186Y95470D01*
X67030Y95314D01*
X66953Y95127D01*
X67500D01*
Y95000D01*
X67627D01*
Y94453D01*
X67814Y94530D01*
X67970Y94686D01*
X67989Y94732D01*
X68288Y94791D01*
X68894Y94186D01*
X68862Y94066D01*
Y93717D01*
X68894Y93597D01*
X62437Y87140D01*
X62325Y86994D01*
X62254Y86824D01*
X62230Y86641D01*
Y83229D01*
X58639Y79638D01*
X58385Y79743D01*
Y82150D01*
X57140D01*
X56808Y82482D01*
Y84577D01*
X56913Y84629D01*
X57062Y84655D01*
X57186Y84530D01*
X57373Y84453D01*
Y85000D01*
Y85547D01*
X57186Y85470D01*
X57062Y85345D01*
X56913Y85371D01*
X56808Y85423D01*
Y86361D01*
X56855Y86475D01*
X56888Y86723D01*
Y87540D01*
X58496Y89148D01*
X58536Y89201D01*
X59468D01*
Y89389D01*
X59574Y89457D01*
X59722Y89515D01*
X59873Y89453D01*
Y90000D01*
Y90547D01*
X59722Y90485D01*
X59574Y90543D01*
X59468Y90611D01*
Y91151D01*
X58536D01*
X58496Y91204D01*
X57794Y91905D01*
Y93108D01*
X57786Y93170D01*
Y94519D01*
X57814Y94530D01*
X57970Y94686D01*
X58047Y94873D01*
X56953D01*
X56978Y94812D01*
X56827Y94558D01*
X55386D01*
Y92158D01*
X55878D01*
Y91508D01*
X55911Y91260D01*
X56006Y91029D01*
X56159Y90831D01*
X56813Y90176D01*
X55252Y88615D01*
X55100Y88416D01*
X55004Y88185D01*
X54971Y87937D01*
Y87005D01*
X54924Y86891D01*
X54891Y86643D01*
Y82085D01*
X54924Y81837D01*
X55020Y81606D01*
X55172Y81407D01*
X55785Y80795D01*
Y80217D01*
X55531Y80167D01*
X55470Y80314D01*
X55314Y80470D01*
X55127Y80547D01*
Y80000D01*
Y79453D01*
X55314Y79530D01*
X55470Y79686D01*
X55531Y79833D01*
X55785Y79783D01*
Y79550D01*
X58191D01*
X58297Y79296D01*
X55427Y76426D01*
X55314Y76280D01*
X55244Y76109D01*
X55220Y75927D01*
Y58658D01*
X55244Y58476D01*
X55314Y58305D01*
X55427Y58159D01*
X56858Y56728D01*
X56849Y56694D01*
Y56378D01*
X56930Y56072D01*
X57088Y55799D01*
X57155Y55732D01*
X57186Y55470D01*
X57030Y55314D01*
X56953Y55127D01*
X58065D01*
X58192Y55315D01*
X58233Y55343D01*
X58512Y55417D01*
X58785Y55575D01*
X59009Y55799D01*
X59167Y56072D01*
X59249Y56378D01*
Y56694D01*
X59167Y56999D01*
X59009Y57272D01*
X58785Y57496D01*
X58512Y57654D01*
X58207Y57736D01*
X57891D01*
X57856Y57726D01*
X56632Y58951D01*
Y75634D01*
X62478Y81480D01*
X62649Y81424D01*
X62724Y81367D01*
Y80977D01*
X63958D01*
Y82211D01*
X63568D01*
X63491Y82310D01*
X63472Y82355D01*
X63449Y82456D01*
X63548Y82584D01*
X63618Y82754D01*
X63642Y82937D01*
Y86349D01*
X69892Y92599D01*
X70012Y92566D01*
X70361D01*
X70698Y92657D01*
X71000Y92831D01*
X71139Y92970D01*
X71393Y92865D01*
Y90451D01*
X70791Y89849D01*
X70554Y89971D01*
Y90110D01*
X70470Y90314D01*
X70314Y90470D01*
X70127Y90547D01*
Y90000D01*
X70000D01*
Y89873D01*
X69453D01*
X69530Y89686D01*
X69686Y89530D01*
X69890Y89446D01*
X70029D01*
X70151Y89209D01*
X69934Y88992D01*
X69857Y88876D01*
X69830Y88740D01*
Y87716D01*
X68862D01*
Y85066D01*
X71512D01*
Y87716D01*
X70543D01*
Y88592D01*
X71924Y89972D01*
X72178Y89867D01*
Y82296D01*
X71924Y82150D01*
X71844Y82183D01*
X71635Y82211D01*
X71212D01*
Y80850D01*
Y79489D01*
X71635D01*
X71844Y79517D01*
X71924Y79549D01*
X72178Y79403D01*
Y73669D01*
X63280Y64772D01*
X63095Y64868D01*
X63090Y64873D01*
X62627D01*
Y64410D01*
X62632Y64405D01*
X62728Y64220D01*
X61107Y62599D01*
X61012Y62654D01*
X60707Y62736D01*
X60391D01*
X60085Y62654D01*
X59812Y62496D01*
X59588Y62272D01*
X59430Y61999D01*
X59349Y61694D01*
Y61378D01*
X59430Y61072D01*
X59588Y60799D01*
X59655Y60732D01*
X59686Y60470D01*
X59530Y60314D01*
X59453Y60127D01*
X60565D01*
X60692Y60315D01*
X60733Y60343D01*
X61012Y60417D01*
X61285Y60575D01*
X61509Y60799D01*
X61667Y61072D01*
X61749Y61378D01*
Y61694D01*
X61667Y61999D01*
X61612Y62094D01*
X69240Y69723D01*
X69530Y69686D01*
X69686Y69530D01*
X69873Y69453D01*
Y70000D01*
X70000D01*
Y70127D01*
X70547D01*
X70470Y70314D01*
X70314Y70470D01*
X70277Y70760D01*
X72787Y73269D01*
X72864Y73385D01*
X72891Y73522D01*
Y103530D01*
X72910Y103549D01*
X72987Y103732D01*
Y103931D01*
X72910Y104115D01*
X72770Y104256D01*
X72586Y104332D01*
X72387D01*
X72203Y104256D01*
X72063Y104115D01*
X71987Y103931D01*
Y103732D01*
X72063Y103549D01*
X72178Y103434D01*
Y96632D01*
X71924Y96527D01*
X71008Y97443D01*
X70892Y97520D01*
X70756Y97547D01*
X70032D01*
Y98510D01*
X68717D01*
Y96840D01*
X69647D01*
X69682Y96833D01*
X70608D01*
X71393Y96048D01*
Y94918D01*
X71139Y94813D01*
X71000Y94952D01*
X70698Y95126D01*
X70361Y95216D01*
X70012D01*
X69892Y95184D01*
X67808Y97269D01*
Y98996D01*
X68308D01*
Y99707D01*
X68435D01*
Y99834D01*
X69146D01*
Y100418D01*
X69281Y100534D01*
X69470Y100570D01*
X69642Y100432D01*
X69682Y100325D01*
Y99050D01*
X70997D01*
Y100364D01*
X71092Y100579D01*
X71316D01*
Y102379D01*
X70134D01*
X70037Y102614D01*
X73600Y106177D01*
X76073D01*
X76140Y106110D01*
X76154Y105829D01*
X73707Y103382D01*
X73630Y103267D01*
X73603Y103130D01*
Y77014D01*
X73500Y76935D01*
X73379Y76778D01*
X73304Y76596D01*
X73278Y76400D01*
Y75300D01*
X73304Y75104D01*
X73379Y74922D01*
X73500Y74765D01*
X73656Y74645D01*
X73839Y74569D01*
X74035Y74543D01*
X75135D01*
X75330Y74569D01*
X75513Y74645D01*
X75670Y74765D01*
X75790Y74922D01*
X75865Y75104D01*
X75891Y75300D01*
Y76400D01*
X75865Y76596D01*
X75790Y76778D01*
X75670Y76935D01*
X75513Y77055D01*
X75330Y77131D01*
X75135Y77156D01*
X74317D01*
Y79568D01*
X74380Y79603D01*
X74571Y79646D01*
X74686Y79530D01*
X74873Y79453D01*
Y80000D01*
Y80547D01*
X74686Y80470D01*
X74571Y80354D01*
X74380Y80397D01*
X74317Y80432D01*
Y89568D01*
X74380Y89603D01*
X74571Y89646D01*
X74686Y89530D01*
X74873Y89453D01*
Y90000D01*
Y90547D01*
X74686Y90470D01*
X74571Y90354D01*
X74380Y90397D01*
X74317Y90432D01*
Y99568D01*
X74380Y99603D01*
X74571Y99646D01*
X74686Y99530D01*
X74873Y99453D01*
Y100000D01*
Y100547D01*
X74686Y100470D01*
X74571Y100354D01*
X74380Y100397D01*
X74317Y100432D01*
Y102982D01*
X78349Y107015D01*
X78715D01*
X78782Y106948D01*
X78916Y106892D01*
X78987Y106718D01*
X79000Y106618D01*
X75765Y103382D01*
X75688Y103267D01*
X75660Y103130D01*
Y100467D01*
X75406Y100377D01*
X75314Y100470D01*
X75127Y100547D01*
Y100000D01*
Y99453D01*
X75314Y99530D01*
X75406Y99623D01*
X75660Y99533D01*
Y90467D01*
X75406Y90377D01*
X75314Y90470D01*
X75127Y90547D01*
Y90000D01*
Y89453D01*
X75314Y89530D01*
X75406Y89623D01*
X75660Y89533D01*
Y80467D01*
X75406Y80377D01*
X75314Y80470D01*
X75127Y80547D01*
Y80000D01*
Y79453D01*
X75314Y79530D01*
X75406Y79623D01*
X75549Y79601D01*
X75667Y79550D01*
X75688Y79448D01*
X75765Y79332D01*
X79099Y75997D01*
X79215Y75920D01*
X79352Y75893D01*
X80278D01*
Y75300D01*
X80304Y75104D01*
X80379Y74922D01*
X80500Y74765D01*
X80656Y74645D01*
X80839Y74569D01*
X81035Y74543D01*
X82135D01*
X82330Y74569D01*
X82513Y74645D01*
X82670Y74765D01*
X82790Y74922D01*
X82865Y75104D01*
X82891Y75300D01*
Y76400D01*
X82865Y76596D01*
X82790Y76778D01*
X82670Y76935D01*
X82513Y77055D01*
X82330Y77131D01*
X82135Y77156D01*
X81035D01*
X80839Y77131D01*
X80656Y77055D01*
X80500Y76935D01*
X80379Y76778D01*
X80308Y76607D01*
X79499D01*
X76374Y79732D01*
Y102982D01*
X77493Y104101D01*
X77728Y104004D01*
Y82156D01*
X77535D01*
X77339Y82131D01*
X77156Y82055D01*
X77000Y81935D01*
X76879Y81778D01*
X76804Y81596D01*
X76778Y81400D01*
Y80300D01*
X76804Y80104D01*
X76879Y79922D01*
X77000Y79765D01*
X77156Y79645D01*
X77339Y79569D01*
X77535Y79543D01*
X78635D01*
X78830Y79569D01*
X79013Y79645D01*
X79170Y79765D01*
X79290Y79922D01*
X79365Y80104D01*
X79391Y80300D01*
Y81400D01*
X79365Y81596D01*
X79290Y81778D01*
X79170Y81935D01*
X79013Y82055D01*
X78830Y82131D01*
X78635Y82156D01*
X78441D01*
Y104224D01*
X79370Y105152D01*
X79407Y105177D01*
X79537Y105307D01*
X79713D01*
X79897Y105383D01*
X80038Y105524D01*
X80114Y105708D01*
Y105907D01*
X80038Y106091D01*
X79897Y106231D01*
X79898Y106506D01*
X80249Y106857D01*
X80503Y106752D01*
Y105057D01*
X80260D01*
X80025Y105010D01*
X79827Y104877D01*
X79694Y104679D01*
X79648Y104445D01*
Y103645D01*
X79694Y103411D01*
X79827Y103212D01*
X80025Y103080D01*
X80260Y103033D01*
X81460D01*
X81694Y103080D01*
X81892Y103212D01*
X82025Y103411D01*
X82071Y103645D01*
Y104445D01*
X82025Y104679D01*
X81892Y104877D01*
X81694Y105010D01*
X81460Y105057D01*
X81216D01*
Y106809D01*
X87076Y112668D01*
X92081D01*
Y111432D01*
X87137D01*
X87001Y111405D01*
X86885Y111327D01*
X82642Y107084D01*
X82547D01*
X82363Y107008D01*
X82223Y106868D01*
X82147Y106684D01*
Y106485D01*
X82223Y106301D01*
X82363Y106161D01*
X82547Y106084D01*
X82746D01*
X82930Y106161D01*
X83070Y106301D01*
X83147Y106485D01*
Y106580D01*
X85951Y109384D01*
X86236Y109310D01*
X86261Y109248D01*
X86402Y109107D01*
X86586Y109031D01*
X86785D01*
X86968Y109107D01*
X87109Y109248D01*
X87185Y109431D01*
Y109526D01*
X87727Y110068D01*
X88391D01*
X88496Y109814D01*
X86655Y107973D01*
X86586D01*
X86402Y107897D01*
X86261Y107757D01*
X86185Y107573D01*
Y107374D01*
X86261Y107190D01*
X86402Y107050D01*
X86586Y106973D01*
X86785D01*
X86845Y106998D01*
X86989Y106783D01*
X86630Y106424D01*
X86535D01*
X86351Y106348D01*
X86211Y106207D01*
X86134Y106023D01*
Y105825D01*
X86211Y105641D01*
X86351Y105500D01*
X86535Y105424D01*
X86734D01*
X86918Y105500D01*
X87058Y105641D01*
X87134Y105825D01*
Y105919D01*
X88683Y107468D01*
X92081D01*
Y107400D01*
X93872D01*
Y103615D01*
X93899Y103478D01*
X93977Y103362D01*
X94657Y102682D01*
X94606Y102559D01*
X94606D01*
Y101632D01*
X97114D01*
Y102298D01*
X98215D01*
X99667Y100846D01*
X99783Y100768D01*
X99920Y100741D01*
X104678D01*
X104728Y100487D01*
X104686Y100470D01*
X104530Y100314D01*
X104453Y100127D01*
X105547D01*
X105470Y100314D01*
X105314Y100470D01*
X105272Y100487D01*
X105322Y100741D01*
X105430D01*
X105567Y100768D01*
X105683Y100846D01*
X108525Y103688D01*
X109648D01*
Y103645D01*
X109694Y103411D01*
X109827Y103212D01*
X110025Y103080D01*
X110260Y103033D01*
X111460D01*
X111694Y103080D01*
X111892Y103212D01*
X112025Y103411D01*
X112071Y103645D01*
Y104313D01*
X112306Y104475D01*
X112317Y104476D01*
X112373Y104453D01*
Y105000D01*
Y105547D01*
X112186Y105470D01*
X112030Y105314D01*
X111958Y105139D01*
X111904Y105094D01*
X111694Y105010D01*
X111460Y105057D01*
X110260D01*
X110025Y105010D01*
X109827Y104877D01*
X109694Y104679D01*
X109648Y104445D01*
Y104402D01*
X108377D01*
X108241Y104374D01*
X108125Y104297D01*
X105283Y101455D01*
X100067D01*
X98615Y102907D01*
X98499Y102984D01*
X98363Y103012D01*
X97040D01*
X96992Y103077D01*
X96928Y103266D01*
X97025Y103411D01*
X97071Y103645D01*
Y104445D01*
X97025Y104679D01*
X96892Y104877D01*
X96694Y105010D01*
X96460Y105057D01*
X96216D01*
Y105579D01*
X96470Y105684D01*
X96486Y105669D01*
X96670Y105592D01*
X96868D01*
X97052Y105669D01*
X97193Y105809D01*
X97269Y105993D01*
Y106192D01*
X97193Y106376D01*
X97075Y106493D01*
Y112888D01*
X97505Y113318D01*
X97957D01*
Y112204D01*
X97903D01*
Y111852D01*
X98894D01*
Y111598D01*
X97903D01*
Y111246D01*
X97957D01*
Y110000D01*
Y109350D01*
Y108700D01*
Y108050D01*
Y107400D01*
X99816D01*
Y104959D01*
X99843Y104822D01*
X99920Y104706D01*
X101274Y103353D01*
X101269Y103344D01*
X101204Y103103D01*
Y102853D01*
X101269Y102611D01*
X101394Y102394D01*
X101570Y102217D01*
X101787Y102092D01*
X102029Y102028D01*
X102279D01*
X102520Y102092D01*
X102737Y102217D01*
X102914Y102394D01*
X103039Y102611D01*
X103104Y102853D01*
Y103103D01*
X103039Y103344D01*
X102914Y103561D01*
X102737Y103738D01*
X102520Y103863D01*
X102279Y103928D01*
X102029D01*
X101787Y103863D01*
X101778Y103858D01*
X100529Y105107D01*
Y108654D01*
X100502Y108791D01*
X100425Y108906D01*
X100029Y109302D01*
X99913Y109380D01*
X99832Y109396D01*
Y110000D01*
Y111246D01*
X99886D01*
Y111594D01*
X100100Y111730D01*
X100416Y111581D01*
X100421Y111580D01*
X100425Y111578D01*
X100459Y111571D01*
X100493Y111562D01*
X100498Y111563D01*
X100503Y111562D01*
X100632D01*
X100768Y111364D01*
X100768Y111279D01*
Y110637D01*
X101722D01*
Y110510D01*
X101849D01*
Y109656D01*
X102582D01*
X102825Y109631D01*
X102919Y109631D01*
X103652D01*
Y110485D01*
X103779D01*
Y110612D01*
X104733D01*
Y111225D01*
X104733Y111339D01*
X104929Y111479D01*
X105606D01*
X105817Y111269D01*
Y109468D01*
X105113Y108764D01*
X103104D01*
Y109008D01*
X101204D01*
Y107108D01*
X103104D01*
Y107352D01*
X105405D01*
X105588Y107376D01*
X105758Y107446D01*
X105904Y107558D01*
X107022Y108676D01*
X107134Y108822D01*
X107205Y108992D01*
X107229Y109175D01*
Y111561D01*
X107205Y111744D01*
X107134Y111914D01*
X107022Y112060D01*
X106398Y112684D01*
X106252Y112796D01*
X106082Y112867D01*
X105899Y112891D01*
X104679D01*
Y113085D01*
X104485D01*
Y113900D01*
X104461Y114082D01*
X104391Y114253D01*
X104279Y114399D01*
X103444Y115233D01*
X103514Y115443D01*
X103547Y115484D01*
X105261Y115429D01*
D02*
G37*
%LPC*%
G36*
X80127Y110547D02*
Y110127D01*
X80547D01*
X80470Y110314D01*
X80314Y110470D01*
X80127Y110547D01*
D02*
G37*
G36*
X80547Y109873D02*
X80127D01*
Y109453D01*
X80314Y109530D01*
X80470Y109686D01*
X80547Y109873D01*
D02*
G37*
G36*
X79873D02*
X79453D01*
X79530Y109686D01*
X79686Y109530D01*
X79873Y109453D01*
Y109873D01*
D02*
G37*
G36*
X69227Y106435D02*
X68400D01*
Y105708D01*
X69227D01*
Y106435D01*
D02*
G37*
G36*
X66229Y113166D02*
X65729D01*
Y111339D01*
X66856D01*
Y112539D01*
X66229Y113166D01*
D02*
G37*
G36*
X57238Y111765D02*
X57104D01*
X56972Y111739D01*
X56848Y111687D01*
X56737Y111613D01*
X56642Y111518D01*
X56567Y111406D01*
X56516Y111282D01*
X56490Y111151D01*
Y111016D01*
X56516Y110885D01*
X56567Y110761D01*
X56642Y110649D01*
X56737Y110554D01*
X56848Y110480D01*
X56972Y110428D01*
X57104Y110402D01*
X57238D01*
X57370Y110428D01*
X57494Y110480D01*
X57605Y110554D01*
X57700Y110649D01*
X57775Y110761D01*
X57826Y110885D01*
X57852Y111016D01*
Y111151D01*
X57826Y111282D01*
X57775Y111406D01*
X57700Y111518D01*
X57605Y111613D01*
X57494Y111687D01*
X57370Y111739D01*
X57238Y111765D01*
D02*
G37*
G36*
X125127Y110547D02*
Y110127D01*
X125547D01*
X125470Y110314D01*
X125314Y110470D01*
X125127Y110547D01*
D02*
G37*
G36*
X124873D02*
X124686Y110470D01*
X124530Y110314D01*
X124453Y110127D01*
X124873D01*
Y110547D01*
D02*
G37*
G36*
X75127D02*
Y110127D01*
X75547D01*
X75470Y110314D01*
X75314Y110470D01*
X75127Y110547D01*
D02*
G37*
G36*
X74873D02*
X74686Y110470D01*
X74530Y110314D01*
X74453Y110127D01*
X74873D01*
Y110547D01*
D02*
G37*
G36*
X70127D02*
Y110127D01*
X70547D01*
X70470Y110314D01*
X70314Y110470D01*
X70127Y110547D01*
D02*
G37*
G36*
X69873D02*
X69686Y110470D01*
X69530Y110314D01*
X69453Y110127D01*
X69873D01*
Y110547D01*
D02*
G37*
G36*
X60127D02*
Y110127D01*
X60547D01*
X60470Y110314D01*
X60314Y110470D01*
X60127Y110547D01*
D02*
G37*
G36*
X59873D02*
X59686Y110470D01*
X59530Y110314D01*
X59453Y110127D01*
X59873D01*
Y110547D01*
D02*
G37*
G36*
X55127D02*
Y110127D01*
X55547D01*
X55470Y110314D01*
X55314Y110470D01*
X55127Y110547D01*
D02*
G37*
G36*
X54873D02*
X54686Y110470D01*
X54530Y110314D01*
X54453Y110127D01*
X54873D01*
Y110547D01*
D02*
G37*
G36*
X101595Y110383D02*
X100768D01*
Y109656D01*
X101595D01*
Y110383D01*
D02*
G37*
G36*
X104733Y110358D02*
X103906D01*
Y109631D01*
X104733D01*
Y110358D01*
D02*
G37*
G36*
X125547Y109873D02*
X125127D01*
Y109453D01*
X125314Y109530D01*
X125470Y109686D01*
X125547Y109873D01*
D02*
G37*
G36*
X124873D02*
X124453D01*
X124530Y109686D01*
X124686Y109530D01*
X124873Y109453D01*
Y109873D01*
D02*
G37*
G36*
X75547D02*
X75127D01*
Y109453D01*
X75314Y109530D01*
X75470Y109686D01*
X75547Y109873D01*
D02*
G37*
G36*
X74873D02*
X74453D01*
X74530Y109686D01*
X74686Y109530D01*
X74873Y109453D01*
Y109873D01*
D02*
G37*
G36*
X70547D02*
X70127D01*
Y109453D01*
X70314Y109530D01*
X70470Y109686D01*
X70547Y109873D01*
D02*
G37*
G36*
X69873D02*
X69453D01*
X69530Y109686D01*
X69686Y109530D01*
X69873Y109453D01*
Y109873D01*
D02*
G37*
G36*
X55547D02*
X55127D01*
Y109453D01*
X55314Y109530D01*
X55470Y109686D01*
X55547Y109873D01*
D02*
G37*
G36*
X54873D02*
X54453D01*
X54530Y109686D01*
X54686Y109530D01*
X54873Y109453D01*
Y109873D01*
D02*
G37*
G36*
X65475Y108385D02*
X64998D01*
Y107258D01*
X65475D01*
Y108385D01*
D02*
G37*
G36*
X113914Y107842D02*
Y107257D01*
X114498D01*
Y107842D01*
X113914D01*
D02*
G37*
G36*
X110305Y113552D02*
X110106D01*
X109922Y113476D01*
X109782Y113335D01*
X109706Y113151D01*
Y112953D01*
X109782Y112769D01*
X109849Y112702D01*
Y109567D01*
X109496D01*
Y107767D01*
X111042D01*
X111096Y107767D01*
X111296Y107767D01*
X111350Y107767D01*
X112791Y107767D01*
X112896Y107767D01*
X113076Y107588D01*
D01*
X113076Y107588D01*
Y107257D01*
X113660D01*
Y107842D01*
X113181Y107842D01*
D01*
X113179D01*
X113005Y108066D01*
X113058Y108208D01*
X113419D01*
X113594Y108243D01*
X113743Y108343D01*
X113779Y108378D01*
X114444D01*
Y109693D01*
X113130D01*
Y109616D01*
X112896Y109567D01*
Y109567D01*
X111350D01*
X111296Y109567D01*
X111096Y109567D01*
X111042Y109567D01*
X110562D01*
Y112702D01*
X110629Y112769D01*
X110706Y112953D01*
Y113151D01*
X110629Y113335D01*
X110489Y113476D01*
X110305Y113552D01*
D02*
G37*
G36*
X114498Y107003D02*
X113914D01*
Y106419D01*
X114498D01*
Y107003D01*
D02*
G37*
G36*
X113660D02*
X113076D01*
Y106419D01*
X113660D01*
Y107003D01*
D02*
G37*
G36*
X59423Y106399D02*
X58596D01*
Y105672D01*
X59423D01*
Y106399D01*
D02*
G37*
G36*
X102286Y106522D02*
X102281D01*
Y105645D01*
X103158D01*
Y105650D01*
X103089Y105905D01*
X102957Y106134D01*
X102770Y106321D01*
X102541Y106453D01*
X102286Y106522D01*
D02*
G37*
G36*
X102027D02*
X102022D01*
X101766Y106453D01*
X101537Y106321D01*
X101350Y106134D01*
X101218Y105905D01*
X101150Y105650D01*
Y105645D01*
X102027D01*
Y106522D01*
D02*
G37*
G36*
X122627Y105547D02*
Y105127D01*
X123047D01*
X122970Y105314D01*
X122814Y105470D01*
X122627Y105547D01*
D02*
G37*
G36*
X116227Y111522D02*
X113227D01*
Y110022D01*
X115360D01*
Y108728D01*
X114984D01*
Y107413D01*
X116654D01*
Y108728D01*
X116278D01*
Y110313D01*
X119011D01*
X120237Y109087D01*
Y107435D01*
X120196D01*
X120013Y107411D01*
X119843Y107340D01*
X119697Y107228D01*
X119584Y107082D01*
X119514Y106912D01*
X119490Y106729D01*
Y105729D01*
X119514Y105546D01*
X119584Y105376D01*
X119697Y105230D01*
X119843Y105117D01*
X120013Y105047D01*
X120196Y105023D01*
X121196D01*
X121379Y105047D01*
X121549Y105117D01*
X121695Y105230D01*
X121734Y105281D01*
X121750Y105302D01*
X121972Y105174D01*
X121959Y105142D01*
X121953Y105127D01*
X122373D01*
Y105547D01*
X122186Y105470D01*
X122104Y105387D01*
X122075Y105358D01*
X121860Y105502D01*
X121868Y105523D01*
X121878Y105546D01*
X121902Y105729D01*
Y106729D01*
X121878Y106912D01*
X121807Y107082D01*
X121695Y107228D01*
X121549Y107340D01*
X121379Y107411D01*
X121196Y107435D01*
X121155D01*
Y109277D01*
X121120Y109452D01*
X121020Y109601D01*
X119525Y111096D01*
X119377Y111195D01*
X119201Y111230D01*
X116227D01*
Y111522D01*
D02*
G37*
G36*
X117627Y105547D02*
Y105127D01*
X118047D01*
X117970Y105314D01*
X117814Y105470D01*
X117627Y105547D01*
D02*
G37*
G36*
X117373D02*
X117186Y105470D01*
X117030Y105314D01*
X116953Y105127D01*
X117373D01*
Y105547D01*
D02*
G37*
G36*
X112627D02*
Y105127D01*
X113047D01*
X112970Y105314D01*
X112814Y105470D01*
X112627Y105547D01*
D02*
G37*
G36*
X107627D02*
Y105127D01*
X108047D01*
X107970Y105314D01*
X107814Y105470D01*
X107627Y105547D01*
D02*
G37*
G36*
X107373D02*
X107186Y105470D01*
X107030Y105314D01*
X106953Y105127D01*
X107373D01*
Y105547D01*
D02*
G37*
G36*
X62612Y106399D02*
X61785D01*
Y105672D01*
X62057D01*
X62065Y105658D01*
X62135Y105418D01*
X62030Y105314D01*
X61953Y105127D01*
X63047D01*
X62970Y105314D01*
X62814Y105470D01*
X62775Y105486D01*
X62612Y105672D01*
X62612Y105807D01*
Y106399D01*
D02*
G37*
G36*
X103158Y105391D02*
X102281D01*
Y104514D01*
X102286D01*
X102541Y104582D01*
X102770Y104714D01*
X102957Y104901D01*
X103089Y105130D01*
X103158Y105385D01*
Y105391D01*
D02*
G37*
G36*
X102027D02*
X101150D01*
Y105385D01*
X101218Y105130D01*
X101350Y104901D01*
X101537Y104714D01*
X101766Y104582D01*
X102022Y104514D01*
X102027D01*
Y105391D01*
D02*
G37*
G36*
X123047Y104873D02*
X122627D01*
Y104453D01*
X122814Y104530D01*
X122970Y104686D01*
X123047Y104873D01*
D02*
G37*
G36*
X122373D02*
X121953D01*
X122030Y104686D01*
X122186Y104530D01*
X122373Y104453D01*
Y104873D01*
D02*
G37*
G36*
X118047D02*
X117627D01*
Y104453D01*
X117814Y104530D01*
X117970Y104686D01*
X118047Y104873D01*
D02*
G37*
G36*
X117373D02*
X116953D01*
X117030Y104686D01*
X117186Y104530D01*
X117373Y104453D01*
Y104873D01*
D02*
G37*
G36*
X113047D02*
X112627D01*
Y104453D01*
X112814Y104530D01*
X112970Y104686D01*
X113047Y104873D01*
D02*
G37*
G36*
X108047D02*
X107627D01*
Y104453D01*
X107814Y104530D01*
X107970Y104686D01*
X108047Y104873D01*
D02*
G37*
G36*
X107373D02*
X106953D01*
X107030Y104686D01*
X107186Y104530D01*
X107373Y104453D01*
Y104873D01*
D02*
G37*
G36*
X63047D02*
X62627D01*
Y104453D01*
X62814Y104530D01*
X62970Y104686D01*
X63047Y104873D01*
D02*
G37*
G36*
X62373D02*
X61953D01*
X62030Y104686D01*
X62186Y104530D01*
X62373Y104453D01*
Y104873D01*
D02*
G37*
G36*
X112114Y102559D02*
X110987D01*
Y101632D01*
X112114D01*
Y102559D01*
D02*
G37*
G36*
X110733D02*
X109606D01*
Y101632D01*
X110733D01*
Y102559D01*
D02*
G37*
G36*
X82114D02*
X80987D01*
Y101632D01*
X82114D01*
Y102559D01*
D02*
G37*
G36*
X80733D02*
X79606D01*
Y101632D01*
X80733D01*
Y102559D01*
D02*
G37*
G36*
X112114Y101378D02*
X110987D01*
Y100451D01*
X112114D01*
Y101378D01*
D02*
G37*
G36*
X120127Y100547D02*
Y100127D01*
X120547D01*
X120470Y100314D01*
X120314Y100470D01*
X120127Y100547D01*
D02*
G37*
G36*
X119873D02*
X119686Y100470D01*
X119530Y100314D01*
X119453Y100127D01*
X119873D01*
Y100547D01*
D02*
G37*
G36*
X115127D02*
Y100127D01*
X115547D01*
X115470Y100314D01*
X115314Y100470D01*
X115127Y100547D01*
D02*
G37*
G36*
X114873D02*
X114686Y100470D01*
X114530Y100314D01*
X114453Y100127D01*
X114873D01*
Y100547D01*
D02*
G37*
G36*
X110733Y101378D02*
X109606D01*
Y100451D01*
X109543Y100327D01*
X109530Y100314D01*
X109453Y100127D01*
X110547D01*
X110518Y100197D01*
X110665Y100451D01*
X110733D01*
Y101378D01*
D02*
G37*
G36*
X55127Y100547D02*
Y100127D01*
X55547D01*
X55470Y100314D01*
X55314Y100470D01*
X55127Y100547D01*
D02*
G37*
G36*
X54873D02*
X54686Y100470D01*
X54530Y100314D01*
X54453Y100127D01*
X54873D01*
Y100547D01*
D02*
G37*
G36*
X120547Y99873D02*
X120127D01*
Y99453D01*
X120314Y99530D01*
X120470Y99686D01*
X120547Y99873D01*
D02*
G37*
G36*
X119873D02*
X119453D01*
X119530Y99686D01*
X119686Y99530D01*
X119873Y99453D01*
Y99873D01*
D02*
G37*
G36*
X115547D02*
X115127D01*
Y99453D01*
X115314Y99530D01*
X115470Y99686D01*
X115547Y99873D01*
D02*
G37*
G36*
X114873D02*
X114453D01*
X114530Y99686D01*
X114686Y99530D01*
X114873Y99453D01*
Y99873D01*
D02*
G37*
G36*
X110547D02*
X110127D01*
Y99453D01*
X110314Y99530D01*
X110470Y99686D01*
X110547Y99873D01*
D02*
G37*
G36*
X109873D02*
X109453D01*
X109530Y99686D01*
X109686Y99530D01*
X109873Y99453D01*
Y99873D01*
D02*
G37*
G36*
X105547D02*
X105127D01*
Y99453D01*
X105314Y99530D01*
X105470Y99686D01*
X105547Y99873D01*
D02*
G37*
G36*
X104873D02*
X104453D01*
X104530Y99686D01*
X104686Y99530D01*
X104873Y99453D01*
Y99873D01*
D02*
G37*
G36*
X60547D02*
X60127D01*
Y99453D01*
X60314Y99530D01*
X60470Y99686D01*
X60547Y99873D01*
D02*
G37*
G36*
X59873D02*
X59453D01*
X59530Y99686D01*
X59686Y99530D01*
X59873Y99453D01*
Y99873D01*
D02*
G37*
G36*
X55547D02*
X55127D01*
Y99453D01*
X55314Y99530D01*
X55470Y99686D01*
X55547Y99873D01*
D02*
G37*
G36*
X54873D02*
X54453D01*
X54530Y99686D01*
X54686Y99530D01*
X54873Y99453D01*
Y99873D01*
D02*
G37*
G36*
X69146Y99580D02*
X68562D01*
Y98996D01*
X69146D01*
Y99580D01*
D02*
G37*
G36*
X61418Y98888D02*
X59018D01*
Y98316D01*
X57786D01*
Y98558D01*
X55386D01*
Y96158D01*
X57786D01*
Y96399D01*
X59888D01*
X60136Y96432D01*
X60271Y96488D01*
X61418D01*
Y98888D01*
D02*
G37*
G36*
X112627Y95547D02*
Y95127D01*
X113047D01*
X112970Y95314D01*
X112814Y95470D01*
X112627Y95547D01*
D02*
G37*
G36*
X112373D02*
X112186Y95470D01*
X112030Y95314D01*
X111953Y95127D01*
X112373D01*
Y95547D01*
D02*
G37*
G36*
X107627D02*
Y95127D01*
X108047D01*
X107970Y95314D01*
X107814Y95470D01*
X107627Y95547D01*
D02*
G37*
G36*
X107373D02*
X107186Y95470D01*
X107030Y95314D01*
X106953Y95127D01*
X107373D01*
Y95547D01*
D02*
G37*
G36*
X102627D02*
Y95127D01*
X103047D01*
X102970Y95314D01*
X102814Y95470D01*
X102627Y95547D01*
D02*
G37*
G36*
X102373D02*
X102186Y95470D01*
X102030Y95314D01*
X101953Y95127D01*
X102373D01*
Y95547D01*
D02*
G37*
G36*
X62627D02*
Y95127D01*
X63047D01*
X62970Y95314D01*
X62814Y95470D01*
X62627Y95547D01*
D02*
G37*
G36*
X62373D02*
X62186Y95470D01*
X62030Y95314D01*
X61953Y95127D01*
X62373D01*
Y95547D01*
D02*
G37*
G36*
X57627D02*
Y95127D01*
X58047D01*
X57970Y95314D01*
X57814Y95470D01*
X57627Y95547D01*
D02*
G37*
G36*
X57373D02*
X57186Y95470D01*
X57030Y95314D01*
X56953Y95127D01*
X57373D01*
Y95547D01*
D02*
G37*
G36*
X113047Y94873D02*
X112627D01*
Y94453D01*
X112814Y94530D01*
X112970Y94686D01*
X113047Y94873D01*
D02*
G37*
G36*
X112373D02*
X111953D01*
X112030Y94686D01*
X112186Y94530D01*
X112373Y94453D01*
Y94873D01*
D02*
G37*
G36*
X108047D02*
X107627D01*
Y94453D01*
X107814Y94530D01*
X107970Y94686D01*
X108047Y94873D01*
D02*
G37*
G36*
X107373D02*
X106953D01*
X107030Y94686D01*
X107186Y94530D01*
X107373Y94453D01*
Y94873D01*
D02*
G37*
G36*
X103047D02*
X102627D01*
Y94453D01*
X102814Y94530D01*
X102970Y94686D01*
X103047Y94873D01*
D02*
G37*
G36*
X102373D02*
X101953D01*
X102030Y94686D01*
X102186Y94530D01*
X102373Y94453D01*
Y94873D01*
D02*
G37*
G36*
X67373D02*
X66953D01*
X67030Y94686D01*
X67186Y94530D01*
X67373Y94453D01*
Y94873D01*
D02*
G37*
G36*
X61418Y94888D02*
X59018D01*
Y92488D01*
X61418D01*
Y92730D01*
X62676D01*
Y92158D01*
X65076D01*
Y94558D01*
X63928D01*
X63794Y94613D01*
X63546Y94646D01*
X63228D01*
X63066Y94873D01*
X61934D01*
X61772Y94646D01*
X61418D01*
Y94888D01*
D02*
G37*
G36*
X63622Y91205D02*
X62395D01*
Y90303D01*
X63622D01*
Y91205D01*
D02*
G37*
G36*
X62141D02*
X60914D01*
Y90303D01*
X62141D01*
Y91205D01*
D02*
G37*
G36*
X69873Y90547D02*
X69686Y90470D01*
X69530Y90314D01*
X69453Y90127D01*
X69873D01*
Y90547D01*
D02*
G37*
G36*
X60127D02*
Y90127D01*
X60547D01*
X60470Y90314D01*
X60314Y90470D01*
X60127Y90547D01*
D02*
G37*
G36*
X55127D02*
Y90127D01*
X55547D01*
X55470Y90314D01*
X55314Y90470D01*
X55127Y90547D01*
D02*
G37*
G36*
X54873D02*
X54686Y90470D01*
X54530Y90314D01*
X54453Y90127D01*
X54873D01*
Y90547D01*
D02*
G37*
G36*
X60547Y89873D02*
X60127D01*
Y89453D01*
X60314Y89530D01*
X60470Y89686D01*
X60547Y89873D01*
D02*
G37*
G36*
X55547D02*
X55127D01*
Y89453D01*
X55314Y89530D01*
X55470Y89686D01*
X55547Y89873D01*
D02*
G37*
G36*
X54873D02*
X54453D01*
X54530Y89686D01*
X54686Y89530D01*
X54873Y89453D01*
Y89873D01*
D02*
G37*
G36*
X63622Y90049D02*
X62395D01*
Y89147D01*
X63622D01*
Y90049D01*
D02*
G37*
G36*
X62141D02*
X60914D01*
Y89147D01*
X62141D01*
Y90049D01*
D02*
G37*
G36*
X61057Y86125D02*
Y85350D01*
X61831D01*
X61772Y85572D01*
X61653Y85778D01*
X61485Y85946D01*
X61279Y86065D01*
X61057Y86125D01*
D02*
G37*
G36*
X60803D02*
X60581Y86065D01*
X60375Y85946D01*
X60206Y85778D01*
X60087Y85572D01*
X60028Y85350D01*
X60803D01*
Y86125D01*
D02*
G37*
G36*
X67627Y85547D02*
Y85127D01*
X68047D01*
X67970Y85314D01*
X67814Y85470D01*
X67627Y85547D01*
D02*
G37*
G36*
X67373D02*
X67186Y85470D01*
X67030Y85314D01*
X66953Y85127D01*
X67373D01*
Y85547D01*
D02*
G37*
G36*
X57627D02*
Y85127D01*
X58047D01*
X57970Y85314D01*
X57814Y85470D01*
X57627Y85547D01*
D02*
G37*
G36*
X68047Y84873D02*
X67627D01*
Y84453D01*
X67814Y84530D01*
X67970Y84686D01*
X68047Y84873D01*
D02*
G37*
G36*
X67373D02*
X66953D01*
X67030Y84686D01*
X67186Y84530D01*
X67373Y84453D01*
Y84873D01*
D02*
G37*
G36*
X58047D02*
X57627D01*
Y84453D01*
X57814Y84530D01*
X57970Y84686D01*
X58047Y84873D01*
D02*
G37*
G36*
X61831Y85096D02*
X61057D01*
Y84321D01*
X61279Y84381D01*
X61485Y84500D01*
X61653Y84668D01*
X61772Y84874D01*
X61831Y85096D01*
D02*
G37*
G36*
X60803D02*
X60028D01*
X60087Y84874D01*
X60206Y84668D01*
X60375Y84500D01*
X60581Y84381D01*
X60803Y84321D01*
Y85096D01*
D02*
G37*
G36*
X64635Y82211D02*
X64212D01*
Y80977D01*
X65446D01*
Y81400D01*
X65418Y81610D01*
X65337Y81805D01*
X65208Y81973D01*
X65040Y82102D01*
X64844Y82183D01*
X64635Y82211D01*
D02*
G37*
G36*
X70958D02*
X70535D01*
X70325Y82183D01*
X70129Y82102D01*
X69961Y81973D01*
X69832Y81805D01*
X69751Y81610D01*
X69724Y81400D01*
Y80977D01*
X70958D01*
Y82211D01*
D02*
G37*
G36*
X54873Y80547D02*
X54686Y80470D01*
X54530Y80314D01*
X54453Y80127D01*
X54873D01*
Y80547D01*
D02*
G37*
G36*
X70958Y80723D02*
X69724D01*
Y80300D01*
X69751Y80090D01*
X69832Y79894D01*
X69961Y79726D01*
X70129Y79598D01*
X70325Y79517D01*
X70535Y79489D01*
X70958D01*
Y80723D01*
D02*
G37*
G36*
X65446Y80723D02*
X64212D01*
Y79489D01*
X64635D01*
X64844Y79517D01*
X65040Y79598D01*
X65208Y79726D01*
X65337Y79894D01*
X65418Y80090D01*
X65446Y80300D01*
Y80723D01*
D02*
G37*
G36*
X63958D02*
X62724D01*
Y80300D01*
X62751Y80090D01*
X62832Y79894D01*
X62961Y79726D01*
X63129Y79598D01*
X63325Y79517D01*
X63535Y79489D01*
X63958D01*
Y80723D01*
D02*
G37*
G36*
X54873Y79873D02*
X54453D01*
X54530Y79686D01*
X54686Y79530D01*
X54873Y79453D01*
Y79873D01*
D02*
G37*
G36*
X61135Y77211D02*
X60712D01*
Y75977D01*
X61946D01*
Y76400D01*
X61918Y76610D01*
X61837Y76805D01*
X61708Y76973D01*
X61540Y77102D01*
X61344Y77183D01*
X61135Y77211D01*
D02*
G37*
G36*
X60458D02*
X60035D01*
X59825Y77183D01*
X59629Y77102D01*
X59461Y76973D01*
X59332Y76805D01*
X59251Y76610D01*
X59224Y76400D01*
Y75977D01*
X60458D01*
Y77211D01*
D02*
G37*
G36*
X68135D02*
X67712D01*
Y75977D01*
X68946D01*
Y76400D01*
X68918Y76610D01*
X68837Y76805D01*
X68708Y76973D01*
X68540Y77102D01*
X68344Y77183D01*
X68135Y77211D01*
D02*
G37*
G36*
X67458D02*
X67035D01*
X66825Y77183D01*
X66629Y77102D01*
X66461Y76973D01*
X66332Y76805D01*
X66251Y76610D01*
X66224Y76400D01*
Y75977D01*
X67458D01*
Y77211D01*
D02*
G37*
G36*
X77627Y75547D02*
Y75127D01*
X78047D01*
X77970Y75314D01*
X77814Y75470D01*
X77627Y75547D01*
D02*
G37*
G36*
X77373D02*
X77186Y75470D01*
X77030Y75314D01*
X76953Y75127D01*
X77373D01*
Y75547D01*
D02*
G37*
G36*
X62627D02*
Y75127D01*
X63047D01*
X62970Y75314D01*
X62814Y75470D01*
X62627Y75547D01*
D02*
G37*
G36*
X57627D02*
Y75127D01*
X58047D01*
X57970Y75314D01*
X57814Y75470D01*
X57627Y75547D01*
D02*
G37*
G36*
X57373D02*
X57186Y75470D01*
X57030Y75314D01*
X56953Y75127D01*
X57373D01*
Y75547D01*
D02*
G37*
G36*
X68946Y75723D02*
X67712D01*
Y74489D01*
X68135D01*
X68344Y74517D01*
X68540Y74598D01*
X68708Y74726D01*
X68837Y74894D01*
X68918Y75090D01*
X68946Y75300D01*
Y75723D01*
D02*
G37*
G36*
X67458D02*
X66224D01*
Y75300D01*
X66251Y75090D01*
X66332Y74894D01*
X66461Y74726D01*
X66629Y74598D01*
X66825Y74517D01*
X67035Y74489D01*
X67458D01*
Y75723D01*
D02*
G37*
G36*
X60458Y75723D02*
X59224D01*
Y75300D01*
X59251Y75090D01*
X59332Y74894D01*
X59461Y74726D01*
X59629Y74598D01*
X59825Y74517D01*
X60035Y74489D01*
X60458D01*
Y75723D01*
D02*
G37*
G36*
X78047Y74873D02*
X77627D01*
Y74453D01*
X77814Y74530D01*
X77970Y74686D01*
X78047Y74873D01*
D02*
G37*
G36*
X77373D02*
X76953D01*
X77030Y74686D01*
X77186Y74530D01*
X77373Y74453D01*
Y74873D01*
D02*
G37*
G36*
X63047D02*
X62627D01*
Y74453D01*
X62814Y74530D01*
X62970Y74686D01*
X63047Y74873D01*
D02*
G37*
G36*
X61946Y75723D02*
X60712D01*
Y74489D01*
X61135D01*
X61344Y74517D01*
X61540Y74598D01*
X61708Y74726D01*
X61728Y74752D01*
X62019Y74714D01*
X62030Y74686D01*
X62186Y74530D01*
X62373Y74453D01*
Y75000D01*
Y75547D01*
X62186Y75470D01*
X61946Y75588D01*
Y75723D01*
D02*
G37*
G36*
X58047Y74873D02*
X57627D01*
Y74453D01*
X57814Y74530D01*
X57970Y74686D01*
X58047Y74873D01*
D02*
G37*
G36*
X57373D02*
X56953D01*
X57030Y74686D01*
X57186Y74530D01*
X57373Y74453D01*
Y74873D01*
D02*
G37*
G36*
X80127Y70547D02*
Y70127D01*
X80547D01*
X80470Y70314D01*
X80314Y70470D01*
X80127Y70547D01*
D02*
G37*
G36*
X79873D02*
X79686Y70470D01*
X79530Y70314D01*
X79453Y70127D01*
X79873D01*
Y70547D01*
D02*
G37*
G36*
X75127D02*
Y70127D01*
X75547D01*
X75470Y70314D01*
X75314Y70470D01*
X75127Y70547D01*
D02*
G37*
G36*
X74873D02*
X74686Y70470D01*
X74530Y70314D01*
X74453Y70127D01*
X74873D01*
Y70547D01*
D02*
G37*
G36*
X65127D02*
Y70127D01*
X65547D01*
X65470Y70314D01*
X65314Y70470D01*
X65127Y70547D01*
D02*
G37*
G36*
X64873D02*
X64686Y70470D01*
X64530Y70314D01*
X64453Y70127D01*
X64873D01*
Y70547D01*
D02*
G37*
G36*
X60127D02*
Y70127D01*
X60547D01*
X60470Y70314D01*
X60314Y70470D01*
X60127Y70547D01*
D02*
G37*
G36*
X59873D02*
X59686Y70470D01*
X59530Y70314D01*
X59453Y70127D01*
X59873D01*
Y70547D01*
D02*
G37*
G36*
X80547Y69873D02*
X80127D01*
Y69453D01*
X80314Y69530D01*
X80470Y69686D01*
X80547Y69873D01*
D02*
G37*
G36*
X79873D02*
X79453D01*
X79530Y69686D01*
X79686Y69530D01*
X79873Y69453D01*
Y69873D01*
D02*
G37*
G36*
X75547D02*
X75127D01*
Y69453D01*
X75314Y69530D01*
X75470Y69686D01*
X75547Y69873D01*
D02*
G37*
G36*
X74873D02*
X74453D01*
X74530Y69686D01*
X74686Y69530D01*
X74873Y69453D01*
Y69873D01*
D02*
G37*
G36*
X70547D02*
X70127D01*
Y69453D01*
X70314Y69530D01*
X70470Y69686D01*
X70547Y69873D01*
D02*
G37*
G36*
X65547D02*
X65127D01*
Y69453D01*
X65314Y69530D01*
X65470Y69686D01*
X65547Y69873D01*
D02*
G37*
G36*
X64873D02*
X64453D01*
X64530Y69686D01*
X64686Y69530D01*
X64873Y69453D01*
Y69873D01*
D02*
G37*
G36*
X60547D02*
X60127D01*
Y69453D01*
X60314Y69530D01*
X60470Y69686D01*
X60547Y69873D01*
D02*
G37*
G36*
X59873D02*
X59453D01*
X59530Y69686D01*
X59686Y69530D01*
X59873Y69453D01*
Y69873D01*
D02*
G37*
G36*
X82627Y65547D02*
Y65127D01*
X83047D01*
X82970Y65314D01*
X82814Y65470D01*
X82627Y65547D01*
D02*
G37*
G36*
X82373D02*
X82186Y65470D01*
X82030Y65314D01*
X81953Y65127D01*
X82373D01*
Y65547D01*
D02*
G37*
G36*
X77627D02*
Y65127D01*
X78047D01*
X77970Y65314D01*
X77814Y65470D01*
X77627Y65547D01*
D02*
G37*
G36*
X77373D02*
X77186Y65470D01*
X77030Y65314D01*
X76953Y65127D01*
X77373D01*
Y65547D01*
D02*
G37*
G36*
X72627D02*
Y65127D01*
X73047D01*
X72970Y65314D01*
X72814Y65470D01*
X72627Y65547D01*
D02*
G37*
G36*
X72373D02*
X72186Y65470D01*
X72030Y65314D01*
X71953Y65127D01*
X72373D01*
Y65547D01*
D02*
G37*
G36*
X67627D02*
Y65127D01*
X68047D01*
X67970Y65314D01*
X67814Y65470D01*
X67627Y65547D01*
D02*
G37*
G36*
X67373D02*
X67186Y65470D01*
X67030Y65314D01*
X66953Y65127D01*
X67373D01*
Y65547D01*
D02*
G37*
G36*
X62627D02*
Y65127D01*
X63047D01*
X62970Y65314D01*
X62814Y65470D01*
X62627Y65547D01*
D02*
G37*
G36*
X62373D02*
X62186Y65470D01*
X62030Y65314D01*
X61953Y65127D01*
X62373D01*
Y65547D01*
D02*
G37*
G36*
X57627D02*
Y65127D01*
X58047D01*
X57970Y65314D01*
X57814Y65470D01*
X57627Y65547D01*
D02*
G37*
G36*
X57373D02*
X57186Y65470D01*
X57030Y65314D01*
X56953Y65127D01*
X57373D01*
Y65547D01*
D02*
G37*
G36*
X83047Y64873D02*
X82627D01*
Y64453D01*
X82814Y64530D01*
X82970Y64686D01*
X83047Y64873D01*
D02*
G37*
G36*
X82373D02*
X81953D01*
X82030Y64686D01*
X82186Y64530D01*
X82373Y64453D01*
Y64873D01*
D02*
G37*
G36*
X78047D02*
X77627D01*
Y64453D01*
X77814Y64530D01*
X77970Y64686D01*
X78047Y64873D01*
D02*
G37*
G36*
X77373D02*
X76953D01*
X77030Y64686D01*
X77186Y64530D01*
X77373Y64453D01*
Y64873D01*
D02*
G37*
G36*
X73047D02*
X72627D01*
Y64453D01*
X72814Y64530D01*
X72970Y64686D01*
X73047Y64873D01*
D02*
G37*
G36*
X72373D02*
X71953D01*
X72030Y64686D01*
X72186Y64530D01*
X72373Y64453D01*
Y64873D01*
D02*
G37*
G36*
X68047D02*
X67627D01*
Y64453D01*
X67814Y64530D01*
X67970Y64686D01*
X68047Y64873D01*
D02*
G37*
G36*
X67373D02*
X66953D01*
X67030Y64686D01*
X67186Y64530D01*
X67373Y64453D01*
Y64873D01*
D02*
G37*
G36*
X62373D02*
X61953D01*
X62030Y64686D01*
X62186Y64530D01*
X62373Y64453D01*
Y64873D01*
D02*
G37*
G36*
X58047D02*
X57627D01*
Y64453D01*
X57814Y64530D01*
X57970Y64686D01*
X58047Y64873D01*
D02*
G37*
G36*
X57373D02*
X56953D01*
X57030Y64686D01*
X57186Y64530D01*
X57373Y64453D01*
Y64873D01*
D02*
G37*
G36*
X75127Y60547D02*
Y60127D01*
X75547D01*
X75470Y60314D01*
X75314Y60470D01*
X75127Y60547D01*
D02*
G37*
G36*
X74873D02*
X74686Y60470D01*
X74530Y60314D01*
X74453Y60127D01*
X74873D01*
Y60547D01*
D02*
G37*
G36*
X70127D02*
Y60127D01*
X70547D01*
X70470Y60314D01*
X70314Y60470D01*
X70127Y60547D01*
D02*
G37*
G36*
X69873D02*
X69686Y60470D01*
X69530Y60314D01*
X69453Y60127D01*
X69873D01*
Y60547D01*
D02*
G37*
G36*
X65127D02*
Y60127D01*
X65547D01*
X65470Y60314D01*
X65314Y60470D01*
X65127Y60547D01*
D02*
G37*
G36*
X64873D02*
X64686Y60470D01*
X64530Y60314D01*
X64453Y60127D01*
X64873D01*
Y60547D01*
D02*
G37*
G36*
X75547Y59873D02*
X75127D01*
Y59453D01*
X75314Y59530D01*
X75470Y59686D01*
X75547Y59873D01*
D02*
G37*
G36*
X74873D02*
X74453D01*
X74530Y59686D01*
X74686Y59530D01*
X74873Y59453D01*
Y59873D01*
D02*
G37*
G36*
X70547D02*
X70127D01*
Y59453D01*
X70314Y59530D01*
X70470Y59686D01*
X70547Y59873D01*
D02*
G37*
G36*
X69873D02*
X69453D01*
X69530Y59686D01*
X69686Y59530D01*
X69873Y59453D01*
Y59873D01*
D02*
G37*
G36*
X65547D02*
X65127D01*
Y59453D01*
X65314Y59530D01*
X65470Y59686D01*
X65547Y59873D01*
D02*
G37*
G36*
X64873D02*
X64453D01*
X64530Y59686D01*
X64686Y59530D01*
X64873Y59453D01*
Y59873D01*
D02*
G37*
G36*
X60547D02*
X60127D01*
Y59453D01*
X60314Y59530D01*
X60470Y59686D01*
X60547Y59873D01*
D02*
G37*
G36*
X59873D02*
X59453D01*
X59530Y59686D01*
X59686Y59530D01*
X59873Y59453D01*
Y59873D01*
D02*
G37*
G36*
X63214Y57790D02*
X63176D01*
Y56663D01*
X64303D01*
Y56701D01*
X64217Y57020D01*
X64052Y57306D01*
X63819Y57539D01*
X63533Y57704D01*
X63214Y57790D01*
D02*
G37*
G36*
X62922D02*
X62884D01*
X62565Y57704D01*
X62279Y57539D01*
X62045Y57306D01*
X61880Y57020D01*
X61795Y56701D01*
Y56663D01*
X62922D01*
Y57790D01*
D02*
G37*
G36*
X71538Y56765D02*
X71404D01*
X71272Y56739D01*
X71148Y56687D01*
X71037Y56613D01*
X70942Y56518D01*
X70867Y56406D01*
X70816Y56282D01*
X70790Y56151D01*
Y56016D01*
X70816Y55885D01*
X70867Y55761D01*
X70942Y55649D01*
X71037Y55554D01*
X71148Y55480D01*
X71272Y55428D01*
X71404Y55402D01*
X71538D01*
X71670Y55428D01*
X71794Y55480D01*
X71905Y55554D01*
X72000Y55649D01*
X72075Y55761D01*
X72126Y55885D01*
X72152Y56016D01*
Y56151D01*
X72126Y56282D01*
X72075Y56406D01*
X72000Y56518D01*
X71905Y56613D01*
X71794Y56687D01*
X71670Y56739D01*
X71538Y56765D01*
D02*
G37*
G36*
X67627Y55547D02*
Y55127D01*
X68047D01*
X67970Y55314D01*
X67814Y55470D01*
X67627Y55547D01*
D02*
G37*
G36*
X67373D02*
X67186Y55470D01*
X67030Y55314D01*
X66953Y55127D01*
X67373D01*
Y55547D01*
D02*
G37*
G36*
X64303Y56409D02*
X63049D01*
X61795D01*
Y56370D01*
X61880Y56052D01*
X62045Y55766D01*
X62101Y55709D01*
X62186Y55470D01*
X62030Y55314D01*
X61953Y55127D01*
X63072D01*
X63254Y55292D01*
X63533Y55367D01*
X63819Y55532D01*
X64052Y55766D01*
X64217Y56052D01*
X64303Y56370D01*
Y56409D01*
D02*
G37*
G36*
X68047Y54873D02*
X67627D01*
Y54453D01*
X67814Y54530D01*
X67970Y54686D01*
X68047Y54873D01*
D02*
G37*
G36*
X67373D02*
X66953D01*
X67030Y54686D01*
X67186Y54530D01*
X67373Y54453D01*
Y54873D01*
D02*
G37*
G36*
X63047D02*
X62627D01*
Y54453D01*
X62814Y54530D01*
X62970Y54686D01*
X63047Y54873D01*
D02*
G37*
G36*
X62373D02*
X61953D01*
X62030Y54686D01*
X62186Y54530D01*
X62373Y54453D01*
Y54873D01*
D02*
G37*
G36*
X58047D02*
X57627D01*
Y54453D01*
X57814Y54530D01*
X57970Y54686D01*
X58047Y54873D01*
D02*
G37*
G36*
X57373D02*
X56953D01*
X57030Y54686D01*
X57186Y54530D01*
X57373Y54453D01*
Y54873D01*
D02*
G37*
G36*
X60127Y50547D02*
Y50127D01*
X60547D01*
X60470Y50314D01*
X60314Y50470D01*
X60127Y50547D01*
D02*
G37*
G36*
X59873D02*
X59686Y50470D01*
X59530Y50314D01*
X59453Y50127D01*
X59873D01*
Y50547D01*
D02*
G37*
G36*
X60547Y49873D02*
X60127D01*
Y49453D01*
X60314Y49530D01*
X60470Y49686D01*
X60547Y49873D01*
D02*
G37*
G36*
X59873D02*
X59453D01*
X59530Y49686D01*
X59686Y49530D01*
X59873Y49453D01*
Y49873D01*
D02*
G37*
%LPD*%
D10*
X99920Y101098D02*
X105430D01*
X108377Y104045D01*
X98363Y102655D02*
X99920Y101098D01*
X94229Y103615D02*
X95189Y102655D01*
X98363D01*
X94229Y103615D02*
Y111322D01*
X96718Y106153D02*
X96769Y106102D01*
X96718Y106153D02*
Y113036D01*
X110206Y108758D02*
X110296Y108667D01*
X110206Y108758D02*
Y113052D01*
X90419Y113696D02*
X90440Y113675D01*
X93018D01*
X71750Y90303D02*
Y96196D01*
X70756Y97190D02*
X71750Y96196D01*
X70187Y88740D02*
X71750Y90303D01*
X70187Y86391D02*
Y88740D01*
X69682Y97190D02*
X70756D01*
X69374Y97497D02*
X69682Y97190D01*
X69374Y97497D02*
Y97675D01*
X72487Y103832D02*
X72535Y103784D01*
Y73522D02*
Y103784D01*
X60549Y61536D02*
X72535Y73522D01*
X76017Y103130D02*
X82469Y109582D01*
X76017Y79584D02*
Y103130D01*
Y79584D02*
X79352Y76250D01*
X81185D01*
X73960Y76475D02*
X74585Y75850D01*
X73960Y103130D02*
X78202Y107372D01*
X73960Y76475D02*
Y103130D01*
X73452Y106534D02*
X76424D01*
X69166Y102248D02*
X73452Y106534D01*
X68716Y101479D02*
X69166Y101929D01*
Y102248D01*
X78202Y107372D02*
X79065D01*
X78085Y104372D02*
X79143Y105430D01*
X78085Y80850D02*
Y104372D01*
X96718Y113036D02*
X97357Y113675D01*
X98894D01*
X95860Y104045D02*
Y110770D01*
X94255Y112375D02*
X95860Y110770D01*
X93093Y111650D02*
X93901D01*
X93018Y112375D02*
X94255D01*
X93901Y111650D02*
X94229Y111322D01*
X99777Y109050D02*
X100173Y108654D01*
Y104959D02*
Y108654D01*
X98894Y109125D02*
X98969Y109050D01*
X99777D01*
X100173Y104959D02*
X102154Y102978D01*
X108377Y104045D02*
X110860D01*
X93018Y111725D02*
X93093Y111650D01*
X86634Y105924D02*
X88535Y107825D01*
X93018D01*
X86685Y107473D02*
Y107499D01*
X88961Y109775D01*
X93018D01*
X87579Y110425D02*
X93018D01*
X86685Y109531D02*
X87579Y110425D01*
X79155Y105430D02*
X79533Y105807D01*
X79614D01*
X79143Y105430D02*
X79155D01*
X82647Y106584D02*
X87137Y111075D01*
X93018D01*
X70340Y99707D02*
Y101302D01*
X70516Y101479D01*
X80860Y104045D02*
Y106956D01*
X86928Y113025D01*
X93018D01*
X81185Y76250D02*
X81585Y75850D01*
D17*
X100985Y99590D02*
Y99599D01*
Y88903D02*
Y99590D01*
Y88903D02*
X103144Y86744D01*
Y89744D02*
Y92744D01*
X114831D01*
X128316Y106229D01*
X112096Y108667D02*
X113419D01*
X113787Y109035D01*
X115477Y110772D02*
X119201D01*
X115477D02*
X115819Y110429D01*
Y108070D02*
Y110429D01*
X114727Y110772D02*
X115477D01*
X119201D02*
X120696Y109277D01*
Y106229D02*
Y109277D01*
X124197Y113472D02*
X128316Y109353D01*
Y106229D02*
Y109353D01*
X114727Y113472D02*
X124197D01*
D19*
X70516Y101479D02*
D03*
X68716Y101479D02*
D03*
X112096Y108667D02*
D03*
X110296Y108667D02*
D03*
D20*
X103779Y110485D02*
D03*
Y112285D02*
D03*
X101722Y110510D02*
D03*
Y112310D02*
D03*
X71463Y106588D02*
D03*
Y108388D02*
D03*
X59550Y106526D02*
D03*
Y108326D02*
D03*
X61658Y106526D02*
D03*
Y108326D02*
D03*
X69354Y106562D02*
D03*
Y108362D02*
D03*
D21*
X93018Y107825D02*
D03*
Y108475D02*
D03*
Y109125D02*
D03*
Y109775D02*
D03*
Y110425D02*
D03*
Y111075D02*
D03*
Y111725D02*
D03*
Y112375D02*
D03*
Y113025D02*
D03*
Y113675D02*
D03*
X98894D02*
D03*
Y113025D02*
D03*
Y112375D02*
D03*
Y111725D02*
D03*
Y111075D02*
D03*
Y110425D02*
D03*
Y109775D02*
D03*
Y109125D02*
D03*
Y108475D02*
D03*
Y107825D02*
D03*
D22*
X60218Y93688D02*
D03*
Y97688D02*
D03*
X63876Y97358D02*
D03*
Y93358D02*
D03*
X56586Y97358D02*
D03*
Y93358D02*
D03*
X128316Y106229D02*
D03*
D23*
X62268Y90176D02*
D03*
X58168D02*
D03*
D24*
X115819Y108070D02*
D03*
D25*
X113787Y109035D02*
D03*
Y107131D02*
D03*
D26*
X69374Y97675D02*
D03*
D27*
X70340Y99707D02*
D03*
X68435D02*
D03*
D28*
X114727Y113472D02*
D03*
Y110772D02*
D03*
D29*
X65602Y111212D02*
D03*
D30*
X67102Y108312D02*
D03*
X64102D02*
D03*
D31*
X65602Y108512D02*
D03*
D59*
X88542Y114800D02*
G03*
X82522Y114511I7435J-217923D01*
G01*
X69354Y108350D02*
X71424D01*
X67140D02*
X69354D01*
X67102Y96976D02*
X70187Y93891D01*
X67102Y96976D02*
Y108312D01*
X106523Y109175D02*
Y111561D01*
X102154Y108058D02*
X105405D01*
X106523Y109175D01*
X55926Y75927D02*
X62936Y82937D01*
Y86641D02*
X70187Y93891D01*
X62936Y82937D02*
Y86641D01*
X55926Y58658D02*
Y75927D01*
Y58658D02*
X58049Y56536D01*
X88542Y114800D02*
X102473D01*
X103779Y112285D02*
X103879Y112185D01*
X105899D02*
X106523Y111561D01*
X103879Y112185D02*
X105899D01*
X76398Y108388D02*
X82522Y114511D01*
X101735Y112298D02*
X103767D01*
X101722Y112310D02*
X101735Y112298D01*
X103767D02*
X103779Y112285D01*
Y113900D01*
X102890Y114789D02*
X103779Y113900D01*
X102484Y114789D02*
X102890D01*
X102473Y114800D02*
X102484Y114789D01*
X71463Y108388D02*
X76398D01*
X71424Y108350D02*
X71463Y108388D01*
X67102Y108312D02*
X67140Y108350D01*
D60*
X57177Y111077D02*
D03*
X132877Y106877D02*
D03*
X54677Y49277D02*
D03*
X71477Y56077D02*
D03*
D61*
X90187Y86391D02*
Y93891D01*
X95187Y86391D02*
Y93891D01*
X85085Y80850D02*
X90187Y85952D01*
Y86391D01*
X93411Y80850D02*
X95169Y82607D01*
Y86374D02*
X95187Y86391D01*
X92085Y80850D02*
X93411D01*
X95169Y82607D02*
Y86374D01*
X57592Y108439D02*
X61546D01*
X63663Y108337D02*
X63724D01*
X63652Y108326D02*
X63663Y108337D01*
X61658Y108326D02*
X63652D01*
X56713Y105060D02*
Y107560D01*
X61546Y108439D02*
X61658Y108326D01*
X56713Y107560D02*
X57592Y108439D01*
X60066Y101708D02*
X62657D01*
X56713Y105060D02*
X60066Y101708D01*
X62657D02*
X63876Y100488D01*
Y97358D02*
Y100488D01*
X60218Y93688D02*
X63546D01*
X63876Y93358D01*
X59888Y97358D02*
X60218Y97688D01*
X56586Y97358D02*
X59888D01*
X57818Y90201D02*
X57843Y90176D01*
X56586Y93358D02*
X56836Y93108D01*
X57843Y90176D02*
X58168D01*
X57818Y90201D02*
Y90526D01*
X56836Y91508D02*
X57818Y90526D01*
X56836Y91508D02*
Y93108D01*
X55930Y87937D02*
X57818Y89826D01*
X55930Y86723D02*
Y87937D01*
X57818Y89826D02*
Y90151D01*
X57843Y90176D01*
X55850Y86643D02*
X55930Y86723D01*
X55850Y82085D02*
X57085Y80850D01*
X55850Y82085D02*
Y86643D01*
D62*
X80860Y101505D02*
D03*
X95860D02*
D03*
X110860D02*
D03*
D63*
X80860Y104045D02*
D03*
X95860D02*
D03*
X110860D02*
D03*
D64*
X102154Y102978D02*
D03*
Y105518D02*
D03*
D65*
Y108058D02*
D03*
D66*
X60930Y85223D02*
D03*
X55930Y86723D02*
D03*
D67*
X55977Y45777D02*
D03*
X135977Y109777D02*
D03*
D68*
X70187Y86391D02*
D03*
D69*
X85187D02*
D03*
X90187D02*
D03*
X95187D02*
D03*
Y93891D02*
D03*
X90187D02*
D03*
X85187D02*
D03*
X70187D02*
D03*
D70*
X85085Y80850D02*
D03*
X92085D02*
D03*
D71*
X88585Y75850D02*
D03*
X74585D02*
D03*
X78085Y80850D02*
D03*
X81585Y75850D02*
D03*
X71085Y80850D02*
D03*
X67585Y75850D02*
D03*
X64085Y80850D02*
D03*
X60585Y75850D02*
D03*
D72*
X57085Y80850D02*
D03*
D73*
X58049Y56536D02*
D03*
X63049D02*
D03*
X60549Y61536D02*
D03*
D74*
X120696Y106229D02*
D03*
X103144Y86744D02*
D03*
Y89744D02*
D03*
Y92744D02*
D03*
D75*
X125000Y110000D02*
D03*
X122500Y105000D02*
D03*
X120000Y100000D02*
D03*
X117500Y105000D02*
D03*
X115000Y100000D02*
D03*
X112500Y105000D02*
D03*
X110000Y100000D02*
D03*
X112500Y95000D02*
D03*
X107500Y105000D02*
D03*
X105000Y100000D02*
D03*
X107500Y95000D02*
D03*
X102500D02*
D03*
X80000Y110000D02*
D03*
Y70000D02*
D03*
X82500Y65000D02*
D03*
X75000Y110000D02*
D03*
Y100000D02*
D03*
Y90000D02*
D03*
Y80000D02*
D03*
X77500Y75000D02*
D03*
X75000Y70000D02*
D03*
X77500Y65000D02*
D03*
X75000Y60000D02*
D03*
X70000Y110000D02*
D03*
Y90000D02*
D03*
Y70000D02*
D03*
X72500Y65000D02*
D03*
X70000Y60000D02*
D03*
X67500Y95000D02*
D03*
Y85000D02*
D03*
X65000Y70000D02*
D03*
X67500Y65000D02*
D03*
X65000Y60000D02*
D03*
X67500Y55000D02*
D03*
X60000Y110000D02*
D03*
X62500Y105000D02*
D03*
X60000Y100000D02*
D03*
X62500Y95000D02*
D03*
X60000Y90000D02*
D03*
X62500Y75000D02*
D03*
X60000Y70000D02*
D03*
X62500Y65000D02*
D03*
X60000Y60000D02*
D03*
X62500Y55000D02*
D03*
X60000Y50000D02*
D03*
X55000Y110000D02*
D03*
Y100000D02*
D03*
X57500Y95000D02*
D03*
X55000Y90000D02*
D03*
X57500Y85000D02*
D03*
X55000Y80000D02*
D03*
X57500Y75000D02*
D03*
Y65000D02*
D03*
Y55000D02*
D03*
X62657Y101698D02*
D03*
X100985Y99590D02*
D03*
X96769Y106092D02*
D03*
X110206Y113052D02*
D03*
X90419Y113687D02*
D03*
X72487Y103832D02*
D03*
X86634Y105924D02*
D03*
X86685Y107473D02*
D03*
Y109531D02*
D03*
X82469Y109582D02*
D03*
X79614Y105807D02*
D03*
X82647Y106584D02*
D03*
X79065Y107372D02*
D03*
X76424Y106534D02*
D03*
M02*
