G04*
G04 #@! TF.GenerationSoftware,Altium Limited,Altium Designer,24.10.1 (45)*
G04*
G04 Layer_Color=8421504*
%FSLAX43Y43*%
%MOMM*%
G71*
G04*
G04 #@! TF.SameCoordinates,DA216BA7-6C9C-4F93-A9C1-4DB8622052F4*
G04*
G04*
G04 #@! TF.FilePolarity,Positive*
G04*
G01*
G75*
%ADD19R,1.200X1.400*%
%ADD20R,1.400X1.200*%
%ADD21R,1.475X0.450*%
%ADD22R,2.000X2.000*%
%ADD23R,2.200X1.550*%
%ADD24R,1.270X0.914*%
%ADD25R,0.914X0.914*%
%ADD26R,0.914X1.270*%
%ADD27R,0.914X0.914*%
%ADD28R,2.600X1.100*%
G04:AMPARAMS|DCode=29|XSize=2mm|YSize=3.4mm|CornerRadius=0mm|HoleSize=0mm|Usage=FLASHONLY|Rotation=180.000|XOffset=0mm|YOffset=0mm|HoleType=Round|Shape=Octagon|*
%AMOCTAGOND29*
4,1,8,0.500,-1.700,-0.500,-1.700,-1.000,-1.200,-1.000,1.200,-0.500,1.700,0.500,1.700,1.000,1.200,1.000,-1.200,0.500,-1.700,0.0*
%
%ADD29OCTAGOND29*%

%ADD30R,0.600X1.600*%
%ADD31R,0.700X2.000*%
D19*
X70516Y101479D02*
D03*
X68716Y101479D02*
D03*
X112096Y108667D02*
D03*
X110296Y108667D02*
D03*
D20*
X103779Y110485D02*
D03*
Y112285D02*
D03*
X101722Y110510D02*
D03*
Y112310D02*
D03*
X71463Y106588D02*
D03*
Y108388D02*
D03*
X59550Y106526D02*
D03*
Y108326D02*
D03*
X61658Y106526D02*
D03*
Y108326D02*
D03*
X69354Y106562D02*
D03*
Y108362D02*
D03*
D21*
X93018Y107825D02*
D03*
Y108475D02*
D03*
Y109125D02*
D03*
Y109775D02*
D03*
Y110425D02*
D03*
Y111075D02*
D03*
Y111725D02*
D03*
Y112375D02*
D03*
Y113025D02*
D03*
Y113675D02*
D03*
X98894D02*
D03*
Y113025D02*
D03*
Y112375D02*
D03*
Y111725D02*
D03*
Y111075D02*
D03*
Y110425D02*
D03*
Y109775D02*
D03*
Y109125D02*
D03*
Y108475D02*
D03*
Y107825D02*
D03*
D22*
X60218Y93688D02*
D03*
Y97688D02*
D03*
X63876Y97358D02*
D03*
Y93358D02*
D03*
X56586Y97358D02*
D03*
Y93358D02*
D03*
D23*
X62268Y90176D02*
D03*
X58168D02*
D03*
D24*
X115819Y108070D02*
D03*
D25*
X113787Y109035D02*
D03*
Y107131D02*
D03*
D26*
X69374Y97675D02*
D03*
D27*
X70340Y99707D02*
D03*
X68435D02*
D03*
D28*
X114727Y113472D02*
D03*
Y110772D02*
D03*
D29*
X65602Y111212D02*
D03*
D30*
X67102Y108312D02*
D03*
X64102D02*
D03*
D31*
X65602Y108512D02*
D03*
M02*
