G04*
G04 #@! TF.GenerationSoftware,Altium Limited,Altium Designer,24.10.1 (45)*
G04*
G04 Layer_Color=8388736*
%FSLAX43Y43*%
%MOMM*%
G71*
G04*
G04 #@! TF.SameCoordinates,DA216BA7-6C9C-4F93-A9C1-4DB8622052F4*
G04*
G04*
G04 #@! TF.FilePolarity,Negative*
G04*
G01*
G75*
%ADD32C,1.321*%
%ADD33R,1.403X1.603*%
%ADD34R,1.603X1.403*%
%ADD35R,1.678X0.653*%
%ADD36R,2.203X2.203*%
%ADD37R,2.403X1.753*%
%ADD38R,1.473X1.118*%
%ADD39R,1.118X1.118*%
%ADD40R,1.118X1.473*%
%ADD41R,1.118X1.118*%
%ADD42R,2.803X1.303*%
G04:AMPARAMS|DCode=43|XSize=2.203mm|YSize=3.603mm|CornerRadius=0mm|HoleSize=0mm|Usage=FLASHONLY|Rotation=180.000|XOffset=0mm|YOffset=0mm|HoleType=Round|Shape=Octagon|*
%AMOCTAGOND43*
4,1,8,0.551,-1.802,-0.551,-1.802,-1.102,-1.251,-1.102,1.251,-0.551,1.802,0.551,1.802,1.102,1.251,1.102,-1.251,0.551,-1.802,0.0*
%
%ADD43OCTAGOND43*%

%ADD44R,0.803X1.803*%
%ADD45R,0.903X2.203*%
%ADD46R,2.203X1.803*%
G04:AMPARAMS|DCode=47|XSize=2.203mm|YSize=1.803mm|CornerRadius=0.502mm|HoleSize=0mm|Usage=FLASHONLY|Rotation=0.000|XOffset=0mm|YOffset=0mm|HoleType=Round|Shape=RoundedRectangle|*
%AMROUNDEDRECTD47*
21,1,2.203,0.800,0,0,0.0*
21,1,1.200,1.803,0,0,0.0*
1,1,1.003,0.600,-0.400*
1,1,1.003,-0.600,-0.400*
1,1,1.003,-0.600,0.400*
1,1,1.003,0.600,0.400*
%
%ADD47ROUNDEDRECTD47*%
%ADD48C,1.703*%
%ADD49R,1.703X1.703*%
%ADD50C,1.503*%
%ADD51C,5.003*%
%ADD52R,2.453X2.453*%
%ADD53C,2.453*%
%ADD54C,2.403*%
G04:AMPARAMS|DCode=55|XSize=2.403mm|YSize=2.403mm|CornerRadius=0.652mm|HoleSize=0mm|Usage=FLASHONLY|Rotation=90.000|XOffset=0mm|YOffset=0mm|HoleType=Round|Shape=RoundedRectangle|*
%AMROUNDEDRECTD55*
21,1,2.403,1.100,0,0,90.0*
21,1,1.100,2.403,0,0,90.0*
1,1,1.303,0.550,0.550*
1,1,1.303,0.550,-0.550*
1,1,1.303,-0.550,-0.550*
1,1,1.303,-0.550,0.550*
%
%ADD55ROUNDEDRECTD55*%
%ADD56R,2.403X2.403*%
%ADD57C,2.203*%
G04:AMPARAMS|DCode=58|XSize=2.203mm|YSize=2.203mm|CornerRadius=0.602mm|HoleSize=0mm|Usage=FLASHONLY|Rotation=180.000|XOffset=0mm|YOffset=0mm|HoleType=Round|Shape=RoundedRectangle|*
%AMROUNDEDRECTD58*
21,1,2.203,1.000,0,0,180.0*
21,1,1.000,2.203,0,0,180.0*
1,1,1.203,-0.500,0.500*
1,1,1.203,0.500,0.500*
1,1,1.203,0.500,-0.500*
1,1,1.203,-0.500,-0.500*
%
%ADD58ROUNDEDRECTD58*%
D32*
X57177Y111077D02*
D03*
X132877Y106877D02*
D03*
X54677Y49277D02*
D03*
X71477Y56077D02*
D03*
D33*
X70516Y101479D02*
D03*
X68716Y101479D02*
D03*
X112096Y108667D02*
D03*
X110296Y108667D02*
D03*
D34*
X103779Y110485D02*
D03*
Y112285D02*
D03*
X101722Y110510D02*
D03*
Y112310D02*
D03*
X71463Y106588D02*
D03*
Y108388D02*
D03*
X59550Y106526D02*
D03*
Y108326D02*
D03*
X61658Y106526D02*
D03*
Y108326D02*
D03*
X69354Y106562D02*
D03*
Y108362D02*
D03*
D35*
X93018Y107825D02*
D03*
Y108475D02*
D03*
Y109125D02*
D03*
Y109775D02*
D03*
Y110425D02*
D03*
Y111075D02*
D03*
Y111725D02*
D03*
Y112375D02*
D03*
Y113025D02*
D03*
Y113675D02*
D03*
X98894D02*
D03*
Y113025D02*
D03*
Y112375D02*
D03*
Y111725D02*
D03*
Y111075D02*
D03*
Y110425D02*
D03*
Y109775D02*
D03*
Y109125D02*
D03*
Y108475D02*
D03*
Y107825D02*
D03*
D36*
X60218Y93688D02*
D03*
Y97688D02*
D03*
X63876Y97358D02*
D03*
Y93358D02*
D03*
X56586Y97358D02*
D03*
Y93358D02*
D03*
X128316Y106229D02*
D03*
D37*
X62268Y90176D02*
D03*
X58168D02*
D03*
D38*
X115819Y108070D02*
D03*
D39*
X113787Y109035D02*
D03*
Y107131D02*
D03*
D40*
X69374Y97675D02*
D03*
D41*
X70340Y99707D02*
D03*
X68435D02*
D03*
D42*
X114727Y113472D02*
D03*
Y110772D02*
D03*
D43*
X65602Y111212D02*
D03*
D44*
X67102Y108312D02*
D03*
X64102D02*
D03*
D45*
X65602Y108512D02*
D03*
D46*
X80860Y101505D02*
D03*
X95860D02*
D03*
X110860D02*
D03*
D47*
X80860Y104045D02*
D03*
X95860D02*
D03*
X110860D02*
D03*
D48*
X102154Y102978D02*
D03*
Y105518D02*
D03*
D49*
Y108058D02*
D03*
D50*
X60930Y85223D02*
D03*
X55930Y86723D02*
D03*
D51*
X55977Y45777D02*
D03*
X135977Y109777D02*
D03*
D52*
X70187Y86391D02*
D03*
D53*
X85187D02*
D03*
X90187D02*
D03*
X95187D02*
D03*
Y93891D02*
D03*
X90187D02*
D03*
X85187D02*
D03*
X70187D02*
D03*
D54*
X85085Y80850D02*
D03*
X92085D02*
D03*
D55*
X88585Y75850D02*
D03*
X74585D02*
D03*
X78085Y80850D02*
D03*
X81585Y75850D02*
D03*
X71085Y80850D02*
D03*
X67585Y75850D02*
D03*
X64085Y80850D02*
D03*
X60585Y75850D02*
D03*
D56*
X57085Y80850D02*
D03*
D57*
X58049Y56536D02*
D03*
X63049D02*
D03*
X60549Y61536D02*
D03*
D58*
X120696Y106229D02*
D03*
X103144Y86744D02*
D03*
Y89744D02*
D03*
Y92744D02*
D03*
M02*
