M48
;Layer_Color=9474304
;FILE_FORMAT=4:3
METRIC,LZ
;TYPE=PLATED
T01F00S00C0.300
T02F00S00C0.800
T03F00S00C0.900
T04F00S00C1.000
T05F00S00C1.200
T06F00S00C1.500
T07F00S00C2.500
%
T01
X00825Y0065
X008Y007
X0075
X007
X0065
X006
X00625Y0075
X00575
Y0065
X00625
X00675
X00725
X00775
X0075Y006
X007
X0065
X006
X00625Y0055
X00675
X00575
X006Y005
X00775Y0075
X0075Y008
Y009
X007
X00675Y0095
X00625
X00575
X006Y01
X0062657Y0101698
X00625Y0105
X006Y011
X0055
Y01
Y009
X006
X00575Y0085
X0055Y008
X00675Y0085
X0075Y01
X0072487Y0103832
X0076424Y0106534
X0079065Y0107372
X0075Y011
X007
X008
X0082469Y0109582
X0082647Y0106584
X0079614Y0105807
X0086634Y0105924
X0086685Y0107473
Y0109531
X0090419Y0113687
X0096769Y0106092
X0100985Y009959
X0105Y01
X011
X0115
X01175Y0105
X01125
X01075
Y0095
X01125
X01025
X0110206Y0113052
X0125Y011
X01225Y0105
X012Y01
T02
X005593Y0086723
X006093Y0085223
X008086Y0101505
Y0104045
X009586
Y0101505
X011086
Y0104045
X0120696Y0106229
X0128316
T03
X0102154Y0102978
Y0105518
Y0108058
T04
X0058049Y0056536
X0063049
X0060549Y0061536
X0103144Y0086744
Y0089744
Y0092744
T05
X0081585Y007585
X0088585
X0074585
X0067585
X0060585
X0064085Y008085
X0071085
X0078085
X0057085
X0085085
X0092085
T06
X0070187Y0086391
Y0093891
X0085187
X0090187
X0095187
Y0086391
X0090187
X0085187
T07
X0055977Y0045777
X0135977Y0109777
M30
