G04*
G04 #@! TF.GenerationSoftware,Altium Limited,Altium Designer,24.10.1 (45)*
G04*
G04 Layer_Physical_Order=2*
G04 Layer_Color=16711680*
%FSLAX43Y43*%
%MOMM*%
G71*
G04*
G04 #@! TF.SameCoordinates,E61FDEB7-2D03-4DA0-A35A-EF711F035B6E*
G04*
G04*
G04 #@! TF.FilePolarity,Positive*
G04*
G01*
G75*
%ADD11C,0.300*%
%ADD17C,0.500*%
%ADD22R,2.000X2.000*%
%ADD61C,1.500*%
%ADD62C,2.250*%
%ADD63R,2.250X2.250*%
%ADD64R,2.000X1.600*%
G04:AMPARAMS|DCode=65|XSize=2mm|YSize=1.6mm|CornerRadius=0.4mm|HoleSize=0mm|Usage=FLASHONLY|Rotation=0.000|XOffset=0mm|YOffset=0mm|HoleType=Round|Shape=RoundedRectangle|*
%AMROUNDEDRECTD65*
21,1,2.000,0.800,0,0,0.0*
21,1,1.200,1.600,0,0,0.0*
1,1,0.800,0.600,-0.400*
1,1,0.800,-0.600,-0.400*
1,1,0.800,-0.600,0.400*
1,1,0.800,0.600,0.400*
%
%ADD65ROUNDEDRECTD65*%
%ADD66C,1.500*%
%ADD67R,1.500X1.500*%
%ADD68C,1.300*%
%ADD69C,4.800*%
%ADD70C,2.200*%
G04:AMPARAMS|DCode=71|XSize=2.2mm|YSize=2.2mm|CornerRadius=0.55mm|HoleSize=0mm|Usage=FLASHONLY|Rotation=90.000|XOffset=0mm|YOffset=0mm|HoleType=Round|Shape=RoundedRectangle|*
%AMROUNDEDRECTD71*
21,1,2.200,1.100,0,0,90.0*
21,1,1.100,2.200,0,0,90.0*
1,1,1.100,0.550,0.550*
1,1,1.100,0.550,-0.550*
1,1,1.100,-0.550,-0.550*
1,1,1.100,-0.550,0.550*
%
%ADD71ROUNDEDRECTD71*%
%ADD72R,2.200X2.200*%
%ADD73C,2.000*%
G04:AMPARAMS|DCode=74|XSize=2mm|YSize=2mm|CornerRadius=0.5mm|HoleSize=0mm|Usage=FLASHONLY|Rotation=180.000|XOffset=0mm|YOffset=0mm|HoleType=Round|Shape=RoundedRectangle|*
%AMROUNDEDRECTD74*
21,1,2.000,1.000,0,0,180.0*
21,1,1.000,2.000,0,0,180.0*
1,1,1.000,-0.500,0.500*
1,1,1.000,0.500,0.500*
1,1,1.000,0.500,-0.500*
1,1,1.000,-0.500,-0.500*
%
%ADD74ROUNDEDRECTD74*%
%ADD75C,0.600*%
G36*
X100620Y115577D02*
X105261Y115429D01*
X109897Y115183D01*
X114528Y114838D01*
X119150Y114396D01*
X123762Y113855D01*
X128361Y113216D01*
X132295Y112584D01*
X132320Y112548D01*
Y108377D01*
X132347Y108240D01*
X132424Y108124D01*
X134217Y106332D01*
X134217Y106332D01*
X134332Y106255D01*
X134469Y106228D01*
X136177Y106228D01*
X136260Y105988D01*
X100658Y77896D01*
X100430Y78006D01*
Y99079D01*
X100684Y99185D01*
X100702Y99166D01*
X100886Y99090D01*
X101085D01*
X101269Y99166D01*
X101409Y99307D01*
X101485Y99491D01*
Y99689D01*
X101444Y99789D01*
Y101121D01*
X101409Y101297D01*
X101310Y101446D01*
X97136Y105619D01*
X97124Y105741D01*
X97193Y105809D01*
X97269Y105993D01*
Y106192D01*
X97193Y106376D01*
X97052Y106516D01*
X96868Y106592D01*
X96670D01*
X96486Y106516D01*
X96419Y106449D01*
X91885D01*
X91748Y106422D01*
X91633Y106345D01*
X90840Y105552D01*
X87296D01*
X87127Y105806D01*
X87134Y105825D01*
Y106023D01*
X87058Y106207D01*
X86918Y106348D01*
X86734Y106424D01*
X86535D01*
X86351Y106348D01*
X86211Y106207D01*
X86193Y106164D01*
X83265D01*
X83119Y106418D01*
X83147Y106485D01*
Y106684D01*
X83115Y106761D01*
X83249Y107004D01*
X83263Y107015D01*
X86485D01*
X86586Y106973D01*
X86785D01*
X86968Y107050D01*
X87109Y107190D01*
X87185Y107374D01*
Y107573D01*
X87109Y107757D01*
X86968Y107897D01*
X86785Y107973D01*
X86586D01*
X86402Y107897D01*
X86261Y107757D01*
X86250Y107729D01*
X79415D01*
X79348Y107796D01*
X79165Y107872D01*
X78966D01*
X78782Y107796D01*
X78641Y107655D01*
X78565Y107471D01*
Y107272D01*
X78608Y107170D01*
X78503Y106957D01*
X78459Y106916D01*
X76748D01*
X76707Y106957D01*
X76523Y107034D01*
X76324D01*
X76140Y106957D01*
X76000Y106817D01*
X75924Y106633D01*
Y106434D01*
X76000Y106250D01*
X76140Y106110D01*
X76324Y106034D01*
X76523D01*
X76707Y106110D01*
X76799Y106202D01*
X78970D01*
X79131Y105948D01*
X79114Y105907D01*
Y105708D01*
X79190Y105524D01*
X79330Y105383D01*
X79350Y105100D01*
X78438Y104189D01*
X72837D01*
X72770Y104256D01*
X72586Y104332D01*
X72387D01*
X72203Y104256D01*
X72063Y104115D01*
X71987Y103931D01*
Y103732D01*
X72063Y103549D01*
X72104Y103508D01*
X71998Y103254D01*
X63744D01*
X63568Y103219D01*
X63420Y103119D01*
X62457Y102157D01*
X62374Y102122D01*
X62233Y101981D01*
X62157Y101798D01*
Y101599D01*
X62233Y101415D01*
X62374Y101274D01*
X62557Y101198D01*
X62756D01*
X62940Y101274D01*
X63081Y101415D01*
X63128Y101530D01*
X63934Y102336D01*
X79606D01*
Y100630D01*
X80570Y101595D01*
X80749Y101415D01*
X79732Y100397D01*
X79875Y100311D01*
Y80422D01*
X79900Y80295D01*
X79972Y80187D01*
X84752Y75408D01*
Y65344D01*
X60143Y45927D01*
X59915Y46038D01*
Y46844D01*
X59888Y46980D01*
X59810Y47096D01*
X53816Y53090D01*
X53816Y111519D01*
X54440Y111647D01*
X59008Y112480D01*
X63592Y113216D01*
X68191Y113855D01*
X72803Y114396D01*
X77425Y114838D01*
X82056Y115183D01*
X86693Y115429D01*
X91334Y115577D01*
X95977Y115626D01*
X100620Y115577D01*
D02*
G37*
G36*
X90596Y104603D02*
X89246Y103254D01*
X82202D01*
X82044Y103508D01*
X82071Y103645D01*
Y104445D01*
X82044Y104584D01*
X82201Y104838D01*
X90498D01*
X90596Y104603D01*
D02*
G37*
G36*
X94675Y104582D02*
X94648Y104445D01*
Y103645D01*
X94694Y103411D01*
X94827Y103212D01*
X95025Y103080D01*
X95260Y103033D01*
X96460D01*
X96694Y103080D01*
X96892Y103212D01*
X97025Y103411D01*
X97071Y103645D01*
Y104054D01*
X97306Y104152D01*
X100527Y100931D01*
Y99789D01*
X100485Y99689D01*
Y99686D01*
X100231Y99580D01*
X99265Y100546D01*
X99157Y100619D01*
X99030Y100644D01*
X97114D01*
Y102379D01*
X96149Y101415D01*
X95970Y101595D01*
X96934Y102559D01*
X94785D01*
X95749Y101595D01*
X95570Y101415D01*
X94606Y102379D01*
Y100644D01*
X82114D01*
Y102336D01*
X89436D01*
X89612Y102371D01*
X89760Y102470D01*
X92126Y104836D01*
X94517D01*
X94675Y104582D01*
D02*
G37*
%LPC*%
G36*
X90518Y114187D02*
X90320D01*
X90136Y114111D01*
X89995Y113970D01*
X89919Y113786D01*
Y113588D01*
X89995Y113404D01*
X90136Y113263D01*
X90320Y113187D01*
X90518D01*
X90702Y113263D01*
X90769Y113330D01*
X109432D01*
X109706Y113057D01*
Y112953D01*
X109782Y112769D01*
X109922Y112628D01*
X110106Y112552D01*
X110305D01*
X110489Y112628D01*
X110629Y112769D01*
X110706Y112953D01*
Y113151D01*
X110629Y113335D01*
X110489Y113476D01*
X110305Y113552D01*
X110220D01*
X109832Y113939D01*
X109717Y114017D01*
X109580Y114044D01*
X90769D01*
X90702Y114111D01*
X90518Y114187D01*
D02*
G37*
G36*
X82568Y110082D02*
X82369D01*
X82186Y110005D01*
X82045Y109865D01*
X81969Y109681D01*
Y109482D01*
X82045Y109298D01*
X82186Y109158D01*
X82369Y109082D01*
X82568D01*
X82752Y109158D01*
X82794Y109199D01*
X86310D01*
X86402Y109107D01*
X86586Y109031D01*
X86785D01*
X86968Y109107D01*
X87109Y109248D01*
X87185Y109431D01*
Y109630D01*
X87109Y109814D01*
X86968Y109955D01*
X86785Y110031D01*
X86586D01*
X86402Y109955D01*
X86360Y109913D01*
X82844D01*
X82752Y110005D01*
X82568Y110082D01*
D02*
G37*
G36*
X103104Y109008D02*
X101204D01*
Y107108D01*
X103104D01*
Y109008D01*
D02*
G37*
G36*
X102286Y106522D02*
X102022D01*
X101766Y106453D01*
X101537Y106321D01*
X101534Y106317D01*
X102154Y105697D01*
X102774Y106317D01*
X102770Y106321D01*
X102541Y106453D01*
X102286Y106522D01*
D02*
G37*
G36*
X129516Y107429D02*
X127116D01*
Y105029D01*
X129516D01*
Y107429D01*
D02*
G37*
G36*
X121196Y107435D02*
X120196D01*
X120013Y107411D01*
X119843Y107340D01*
X119697Y107228D01*
X119584Y107082D01*
X119514Y106912D01*
X119490Y106729D01*
Y105729D01*
X119514Y105546D01*
X119584Y105376D01*
X119697Y105230D01*
X119843Y105117D01*
X120013Y105047D01*
X120196Y105023D01*
X121196D01*
X121379Y105047D01*
X121549Y105117D01*
X121695Y105230D01*
X121807Y105376D01*
X121878Y105546D01*
X121902Y105729D01*
Y106729D01*
X121878Y106912D01*
X121807Y107082D01*
X121695Y107228D01*
X121549Y107340D01*
X121379Y107411D01*
X121196Y107435D01*
D02*
G37*
G36*
X102954Y106138D02*
X102333Y105518D01*
X102954Y104897D01*
X102957Y104901D01*
X103089Y105130D01*
X103158Y105385D01*
Y105650D01*
X103089Y105905D01*
X102957Y106134D01*
X102954Y106138D01*
D02*
G37*
G36*
X101354Y106138D02*
X101350Y106134D01*
X101218Y105905D01*
X101150Y105650D01*
Y105385D01*
X101218Y105130D01*
X101350Y104901D01*
X101354Y104897D01*
X101974Y105518D01*
X101354Y106138D01*
D02*
G37*
G36*
X102154Y105338D02*
X101534Y104718D01*
X101537Y104714D01*
X101766Y104582D01*
X102022Y104514D01*
X102286D01*
X102541Y104582D01*
X102770Y104714D01*
X102774Y104718D01*
X102154Y105338D01*
D02*
G37*
G36*
X111460Y105057D02*
X110260D01*
X110025Y105010D01*
X109827Y104877D01*
X109694Y104679D01*
X109648Y104445D01*
Y103645D01*
X109694Y103411D01*
X109827Y103212D01*
X110025Y103080D01*
X110260Y103033D01*
X111460D01*
X111694Y103080D01*
X111892Y103212D01*
X112025Y103411D01*
X112071Y103645D01*
Y104445D01*
X112025Y104679D01*
X111892Y104877D01*
X111694Y105010D01*
X111460Y105057D01*
D02*
G37*
G36*
X102279Y103928D02*
X102029D01*
X101787Y103863D01*
X101570Y103738D01*
X101394Y103561D01*
X101269Y103344D01*
X101204Y103103D01*
Y102853D01*
X101269Y102611D01*
X101394Y102394D01*
X101570Y102217D01*
X101787Y102092D01*
X102029Y102028D01*
X102279D01*
X102520Y102092D01*
X102737Y102217D01*
X102914Y102394D01*
X103039Y102611D01*
X103104Y102853D01*
Y103103D01*
X103039Y103344D01*
X102914Y103561D01*
X102737Y103738D01*
X102520Y103863D01*
X102279Y103928D01*
D02*
G37*
G36*
X112114Y102379D02*
X111239Y101505D01*
X112114Y100630D01*
Y102379D01*
D02*
G37*
G36*
X109606Y102379D02*
Y100630D01*
X110480Y101505D01*
X109606Y102379D01*
D02*
G37*
G36*
X111934Y102559D02*
X109785D01*
X110749Y101595D01*
X110660Y101505D01*
X110749Y101415D01*
X109785Y100451D01*
X111934D01*
X110970Y101415D01*
X111060Y101505D01*
X110970Y101595D01*
X111934Y102559D01*
D02*
G37*
G36*
X70361Y95216D02*
X70012D01*
X69675Y95126D01*
X69373Y94952D01*
X69126Y94705D01*
X68952Y94403D01*
X68862Y94066D01*
Y93717D01*
X68952Y93380D01*
X69126Y93078D01*
X69373Y92831D01*
X69675Y92657D01*
X70012Y92566D01*
X70361D01*
X70698Y92657D01*
X71000Y92831D01*
X71247Y93078D01*
X71421Y93380D01*
X71512Y93717D01*
Y94066D01*
X71421Y94403D01*
X71247Y94705D01*
X71000Y94952D01*
X70698Y95126D01*
X70361Y95216D01*
D02*
G37*
G36*
X103644Y93950D02*
X102644D01*
X102462Y93926D01*
X102291Y93856D01*
X102145Y93743D01*
X102033Y93597D01*
X101962Y93427D01*
X101938Y93244D01*
Y92244D01*
X101962Y92061D01*
X102033Y91891D01*
X102145Y91745D01*
X102291Y91633D01*
X102462Y91562D01*
X102644Y91538D01*
X103644D01*
X103827Y91562D01*
X103997Y91633D01*
X104144Y91745D01*
X104256Y91891D01*
X104326Y92061D01*
X104350Y92244D01*
Y93244D01*
X104326Y93427D01*
X104256Y93597D01*
X104144Y93743D01*
X103997Y93856D01*
X103827Y93926D01*
X103644Y93950D01*
D02*
G37*
G36*
Y90950D02*
X102644D01*
X102462Y90926D01*
X102291Y90856D01*
X102145Y90743D01*
X102033Y90597D01*
X101962Y90427D01*
X101938Y90244D01*
Y89244D01*
X101962Y89061D01*
X102033Y88891D01*
X102145Y88745D01*
X102291Y88633D01*
X102462Y88562D01*
X102644Y88538D01*
X103644D01*
X103827Y88562D01*
X103997Y88633D01*
X104144Y88745D01*
X104256Y88891D01*
X104326Y89061D01*
X104350Y89244D01*
Y90244D01*
X104326Y90427D01*
X104256Y90597D01*
X104144Y90743D01*
X103997Y90856D01*
X103827Y90926D01*
X103644Y90950D01*
D02*
G37*
G36*
X56042Y87573D02*
X55818D01*
X55602Y87515D01*
X55408Y87403D01*
X55249Y87245D01*
X55138Y87051D01*
X55080Y86835D01*
Y86611D01*
X55138Y86395D01*
X55249Y86201D01*
X55408Y86043D01*
X55602Y85931D01*
X55818Y85873D01*
X56042D01*
X56258Y85931D01*
X56452Y86043D01*
X56610Y86201D01*
X56722Y86395D01*
X56780Y86611D01*
Y86835D01*
X56722Y87051D01*
X56610Y87245D01*
X56452Y87403D01*
X56258Y87515D01*
X56042Y87573D01*
D02*
G37*
G36*
X103644Y87950D02*
X102644D01*
X102462Y87926D01*
X102291Y87856D01*
X102145Y87743D01*
X102033Y87597D01*
X101962Y87427D01*
X101938Y87244D01*
Y86244D01*
X101962Y86061D01*
X102033Y85891D01*
X102145Y85745D01*
X102291Y85633D01*
X102462Y85562D01*
X102644Y85538D01*
X103644D01*
X103827Y85562D01*
X103997Y85633D01*
X104144Y85745D01*
X104256Y85891D01*
X104326Y86061D01*
X104350Y86244D01*
Y87244D01*
X104326Y87427D01*
X104256Y87597D01*
X104144Y87743D01*
X103997Y87856D01*
X103827Y87926D01*
X103644Y87950D01*
D02*
G37*
G36*
X61049Y86127D02*
X60811D01*
X60581Y86065D01*
X60382Y85951D01*
X60930Y85403D01*
X61478Y85951D01*
X61279Y86065D01*
X61049Y86127D01*
D02*
G37*
G36*
X71512Y87716D02*
X68862D01*
Y85066D01*
X71512D01*
Y87716D01*
D02*
G37*
G36*
X60202Y85771D02*
X60087Y85572D01*
X60026Y85342D01*
Y85104D01*
X60087Y84874D01*
X60202Y84675D01*
X60750Y85223D01*
X60202Y85771D01*
D02*
G37*
G36*
X61657Y85771D02*
X61109Y85223D01*
X61657Y84675D01*
X61772Y84874D01*
X61834Y85104D01*
Y85342D01*
X61772Y85572D01*
X61657Y85771D01*
D02*
G37*
G36*
X60930Y85043D02*
X60382Y84495D01*
X60581Y84381D01*
X60811Y84319D01*
X61049D01*
X61279Y84381D01*
X61478Y84495D01*
X60930Y85043D01*
D02*
G37*
G36*
X64635Y82211D02*
X63535D01*
X63325Y82183D01*
X63129Y82102D01*
X63063Y82051D01*
X64085Y81029D01*
X65106Y82051D01*
X65040Y82102D01*
X64844Y82183D01*
X64635Y82211D01*
D02*
G37*
G36*
X71635D02*
X70535D01*
X70325Y82183D01*
X70129Y82102D01*
X70063Y82051D01*
X71085Y81029D01*
X72106Y82051D01*
X72040Y82102D01*
X71844Y82183D01*
X71635Y82211D01*
D02*
G37*
G36*
X62883Y81872D02*
X62832Y81805D01*
X62751Y81610D01*
X62724Y81400D01*
Y80300D01*
X62751Y80090D01*
X62832Y79894D01*
X62883Y79828D01*
X63905Y80850D01*
X62883Y81872D01*
D02*
G37*
G36*
X65286Y81872D02*
X64264Y80850D01*
X65286Y79828D01*
X65337Y79894D01*
X65418Y80090D01*
X65446Y80300D01*
Y81400D01*
X65418Y81610D01*
X65337Y81805D01*
X65286Y81872D01*
D02*
G37*
G36*
X72286Y81872D02*
X71264Y80850D01*
X72286Y79828D01*
X72337Y79894D01*
X72418Y80090D01*
X72446Y80300D01*
Y81400D01*
X72418Y81610D01*
X72337Y81805D01*
X72286Y81872D01*
D02*
G37*
G36*
X69883D02*
X69832Y81805D01*
X69751Y81610D01*
X69724Y81400D01*
Y80300D01*
X69751Y80090D01*
X69832Y79894D01*
X69883Y79828D01*
X70905Y80850D01*
X69883Y81872D01*
D02*
G37*
G36*
X58385Y82150D02*
X55785D01*
Y79550D01*
X58385D01*
Y82150D01*
D02*
G37*
G36*
X78635Y82156D02*
X77535D01*
X77339Y82131D01*
X77156Y82055D01*
X77000Y81935D01*
X76879Y81778D01*
X76804Y81596D01*
X76778Y81400D01*
Y80300D01*
X76804Y80104D01*
X76879Y79922D01*
X77000Y79765D01*
X77156Y79645D01*
X77339Y79569D01*
X77535Y79543D01*
X78635D01*
X78830Y79569D01*
X79013Y79645D01*
X79170Y79765D01*
X79290Y79922D01*
X79365Y80104D01*
X79391Y80300D01*
Y81400D01*
X79365Y81596D01*
X79290Y81778D01*
X79170Y81935D01*
X79013Y82055D01*
X78830Y82131D01*
X78635Y82156D01*
D02*
G37*
G36*
X71085Y80670D02*
X70063Y79648D01*
X70129Y79598D01*
X70325Y79517D01*
X70535Y79489D01*
X71635D01*
X71844Y79517D01*
X72040Y79598D01*
X72106Y79648D01*
X71085Y80670D01*
D02*
G37*
G36*
X64085Y80670D02*
X63063Y79648D01*
X63129Y79598D01*
X63325Y79517D01*
X63535Y79489D01*
X64635D01*
X64844Y79517D01*
X65040Y79598D01*
X65106Y79648D01*
X64085Y80670D01*
D02*
G37*
G36*
X61135Y77211D02*
X60035D01*
X59825Y77183D01*
X59629Y77102D01*
X59563Y77051D01*
X60585Y76029D01*
X61606Y77051D01*
X61540Y77102D01*
X61344Y77183D01*
X61135Y77211D01*
D02*
G37*
G36*
X68135D02*
X67035D01*
X66825Y77183D01*
X66629Y77102D01*
X66563Y77051D01*
X67585Y76029D01*
X68606Y77051D01*
X68540Y77102D01*
X68344Y77183D01*
X68135Y77211D01*
D02*
G37*
G36*
X59383Y76872D02*
X59332Y76805D01*
X59251Y76610D01*
X59224Y76400D01*
Y75300D01*
X59251Y75090D01*
X59332Y74894D01*
X59383Y74828D01*
X60405Y75850D01*
X59383Y76872D01*
D02*
G37*
G36*
X66383D02*
X66332Y76805D01*
X66251Y76610D01*
X66224Y76400D01*
Y75300D01*
X66251Y75090D01*
X66332Y74894D01*
X66383Y74828D01*
X67405Y75850D01*
X66383Y76872D01*
D02*
G37*
G36*
X68786Y76872D02*
X67764Y75850D01*
X68786Y74828D01*
X68837Y74894D01*
X68918Y75090D01*
X68946Y75300D01*
Y76400D01*
X68918Y76610D01*
X68837Y76805D01*
X68786Y76872D01*
D02*
G37*
G36*
X61786Y76872D02*
X60764Y75850D01*
X61786Y74828D01*
X61837Y74894D01*
X61918Y75090D01*
X61946Y75300D01*
Y76400D01*
X61918Y76610D01*
X61837Y76805D01*
X61786Y76872D01*
D02*
G37*
G36*
X82135Y77156D02*
X81035D01*
X80839Y77131D01*
X80656Y77055D01*
X80500Y76935D01*
X80379Y76778D01*
X80304Y76596D01*
X80278Y76400D01*
Y75300D01*
X80304Y75104D01*
X80379Y74922D01*
X80500Y74765D01*
X80656Y74645D01*
X80839Y74569D01*
X81035Y74543D01*
X82135D01*
X82330Y74569D01*
X82513Y74645D01*
X82670Y74765D01*
X82790Y74922D01*
X82865Y75104D01*
X82891Y75300D01*
Y76400D01*
X82865Y76596D01*
X82790Y76778D01*
X82670Y76935D01*
X82513Y77055D01*
X82330Y77131D01*
X82135Y77156D01*
D02*
G37*
G36*
X75135D02*
X74035D01*
X73839Y77131D01*
X73656Y77055D01*
X73500Y76935D01*
X73379Y76778D01*
X73304Y76596D01*
X73278Y76400D01*
Y75300D01*
X73304Y75104D01*
X73379Y74922D01*
X73500Y74765D01*
X73656Y74645D01*
X73839Y74569D01*
X74035Y74543D01*
X75135D01*
X75330Y74569D01*
X75513Y74645D01*
X75670Y74765D01*
X75790Y74922D01*
X75865Y75104D01*
X75891Y75300D01*
Y76400D01*
X75865Y76596D01*
X75790Y76778D01*
X75670Y76935D01*
X75513Y77055D01*
X75330Y77131D01*
X75135Y77156D01*
D02*
G37*
G36*
X67585Y75670D02*
X66563Y74648D01*
X66629Y74598D01*
X66825Y74517D01*
X67035Y74489D01*
X68135D01*
X68344Y74517D01*
X68540Y74598D01*
X68606Y74648D01*
X67585Y75670D01*
D02*
G37*
G36*
X60585Y75670D02*
X59563Y74648D01*
X59629Y74598D01*
X59825Y74517D01*
X60035Y74489D01*
X61135D01*
X61344Y74517D01*
X61540Y74598D01*
X61606Y74648D01*
X60585Y75670D01*
D02*
G37*
G36*
X60707Y62736D02*
X60391D01*
X60085Y62654D01*
X59812Y62496D01*
X59588Y62272D01*
X59430Y61999D01*
X59349Y61694D01*
Y61378D01*
X59430Y61072D01*
X59588Y60799D01*
X59812Y60575D01*
X60085Y60417D01*
X60391Y60336D01*
X60707D01*
X61012Y60417D01*
X61285Y60575D01*
X61509Y60799D01*
X61667Y61072D01*
X61749Y61378D01*
Y61694D01*
X61667Y61999D01*
X61509Y62272D01*
X61285Y62496D01*
X61012Y62654D01*
X60707Y62736D01*
D02*
G37*
G36*
X63214Y57790D02*
X62884D01*
X62565Y57704D01*
X62279Y57539D01*
X62252Y57512D01*
X63049Y56715D01*
X63846Y57512D01*
X63819Y57539D01*
X63533Y57704D01*
X63214Y57790D01*
D02*
G37*
G36*
X62072Y57333D02*
X62045Y57306D01*
X61880Y57020D01*
X61795Y56701D01*
Y56370D01*
X61880Y56052D01*
X62045Y55766D01*
X62072Y55739D01*
X62869Y56536D01*
X62072Y57333D01*
D02*
G37*
G36*
X64025Y57333D02*
X63228Y56536D01*
X64025Y55739D01*
X64052Y55766D01*
X64217Y56052D01*
X64303Y56370D01*
Y56701D01*
X64217Y57020D01*
X64052Y57306D01*
X64025Y57333D01*
D02*
G37*
G36*
X58207Y57736D02*
X57891D01*
X57585Y57654D01*
X57312Y57496D01*
X57088Y57272D01*
X56930Y56999D01*
X56849Y56694D01*
Y56378D01*
X56930Y56072D01*
X57088Y55799D01*
X57312Y55575D01*
X57585Y55417D01*
X57891Y55336D01*
X58207D01*
X58512Y55417D01*
X58785Y55575D01*
X59009Y55799D01*
X59167Y56072D01*
X59249Y56378D01*
Y56694D01*
X59167Y56999D01*
X59009Y57272D01*
X58785Y57496D01*
X58512Y57654D01*
X58207Y57736D01*
D02*
G37*
G36*
X63049Y56356D02*
X62252Y55559D01*
X62279Y55532D01*
X62565Y55367D01*
X62884Y55282D01*
X63214D01*
X63533Y55367D01*
X63819Y55532D01*
X63846Y55559D01*
X63049Y56356D01*
D02*
G37*
%LPD*%
D11*
X91885Y106092D02*
X96769D01*
X90419Y113687D02*
X109580D01*
X110206Y113061D01*
X79949Y105195D02*
X90987D01*
X91885Y106092D01*
X78586Y103832D02*
X79949Y105195D01*
X72487Y103832D02*
X78586D01*
X86437Y105807D02*
X86553Y105924D01*
X86634D01*
X79614Y105807D02*
X86437D01*
X76449Y106559D02*
X82621D01*
X76424Y106534D02*
X76449Y106559D01*
X82621D02*
X82647Y106584D01*
X79065Y107372D02*
X86502D01*
X86604Y107473D01*
X86685D01*
X82494Y109556D02*
X86660D01*
X86685Y109531D01*
X82469Y109582D02*
X82494Y109556D01*
D17*
X62657Y101708D02*
X63744Y102795D01*
X89436D01*
X91936Y105295D01*
X96812D02*
X100985Y101121D01*
Y99590D02*
Y101121D01*
X91936Y105295D02*
X96812D01*
D22*
X128316Y106229D02*
D03*
D61*
X88585Y75850D02*
Y82993D01*
X85187Y86391D02*
X88585Y82993D01*
X85187Y86391D02*
Y93891D01*
D62*
X70187D02*
D03*
X85187D02*
D03*
X90187D02*
D03*
X95187D02*
D03*
Y86391D02*
D03*
X90187D02*
D03*
X85187D02*
D03*
D63*
X70187D02*
D03*
D64*
X80860Y101505D02*
D03*
X95860D02*
D03*
X110860D02*
D03*
D65*
X80860Y104045D02*
D03*
X95860D02*
D03*
X110860D02*
D03*
D66*
X102154Y102978D02*
D03*
Y105518D02*
D03*
D67*
Y108058D02*
D03*
D68*
X60930Y85223D02*
D03*
X55930Y86723D02*
D03*
D69*
X55977Y45777D02*
D03*
X135677Y109477D02*
D03*
D70*
X85085Y80850D02*
D03*
X92085D02*
D03*
D71*
X88585Y75850D02*
D03*
X74585D02*
D03*
X78085Y80850D02*
D03*
X81585Y75850D02*
D03*
X71085Y80850D02*
D03*
X67585Y75850D02*
D03*
X64085Y80850D02*
D03*
X60585Y75850D02*
D03*
D72*
X57085Y80850D02*
D03*
D73*
X58049Y56536D02*
D03*
X63049D02*
D03*
X60549Y61536D02*
D03*
D74*
X120696Y106229D02*
D03*
X103144Y86744D02*
D03*
Y89744D02*
D03*
Y92744D02*
D03*
D75*
X106877Y97277D02*
D03*
X115277Y96677D02*
D03*
X110777Y114377D02*
D03*
X106277Y114677D02*
D03*
X108377Y112277D02*
D03*
X82577Y111077D02*
D03*
X90952Y112076D02*
D03*
X98477Y105677D02*
D03*
X90077Y106277D02*
D03*
X87977Y103877D02*
D03*
X65477Y100577D02*
D03*
X74040Y105076D02*
D03*
X92177Y102677D02*
D03*
X85577Y101477D02*
D03*
X90977Y108677D02*
D03*
X95777Y112577D02*
D03*
X105377Y90377D02*
D03*
X130277Y111677D02*
D03*
X127577Y101177D02*
D03*
X118277Y93077D02*
D03*
X123077Y97877D02*
D03*
X112277Y89777D02*
D03*
X104177Y82577D02*
D03*
X125000Y110000D02*
D03*
X122500Y105000D02*
D03*
X120000Y100000D02*
D03*
X117500Y105000D02*
D03*
X115000Y100000D02*
D03*
X112500Y105000D02*
D03*
X110000Y100000D02*
D03*
X112500Y95000D02*
D03*
X107500Y105000D02*
D03*
X105000Y100000D02*
D03*
X107500Y95000D02*
D03*
X102500D02*
D03*
X80000Y110000D02*
D03*
Y70000D02*
D03*
X82500Y65000D02*
D03*
X75000Y110000D02*
D03*
Y100000D02*
D03*
Y90000D02*
D03*
Y80000D02*
D03*
X77500Y75000D02*
D03*
X75000Y70000D02*
D03*
X77500Y65000D02*
D03*
X75000Y60000D02*
D03*
X70000Y110000D02*
D03*
Y90000D02*
D03*
Y70000D02*
D03*
X72500Y65000D02*
D03*
X70000Y60000D02*
D03*
X67500Y95000D02*
D03*
Y85000D02*
D03*
X65000Y70000D02*
D03*
X67500Y65000D02*
D03*
X65000Y60000D02*
D03*
X67500Y55000D02*
D03*
X60000Y110000D02*
D03*
X62500Y105000D02*
D03*
X60000Y100000D02*
D03*
X62500Y95000D02*
D03*
X60000Y90000D02*
D03*
X62500Y75000D02*
D03*
X60000Y70000D02*
D03*
X62500Y65000D02*
D03*
X60000Y60000D02*
D03*
X62500Y55000D02*
D03*
X60000Y50000D02*
D03*
X55000Y110000D02*
D03*
Y100000D02*
D03*
X57500Y95000D02*
D03*
X55000Y90000D02*
D03*
X57500Y85000D02*
D03*
X55000Y80000D02*
D03*
X57500Y75000D02*
D03*
Y65000D02*
D03*
Y55000D02*
D03*
X62657Y101698D02*
D03*
X100985Y99590D02*
D03*
X96769Y106092D02*
D03*
X110206Y113052D02*
D03*
X90419Y113687D02*
D03*
X72487Y103832D02*
D03*
X86634Y105924D02*
D03*
X86685Y107473D02*
D03*
Y109531D02*
D03*
X82469Y109582D02*
D03*
X79614Y105807D02*
D03*
X82647Y106584D02*
D03*
X79065Y107372D02*
D03*
X76424Y106534D02*
D03*
M02*
